<?xml version="1.0" encoding="UTF-8" standalone="no"?>
<svg
   viewBox="0 0 1024 1024"
   role="img"
   aria-label="Wyrlighti kangelase kujundus"
   version="1.1"
   id="svg6"
   sodipodi:docname="SPaat.svg"
   inkscape:version="1.3.2 (091e20e, 2023-11-25, custom)"
   xmlns:inkscape="http://www.inkscape.org/namespaces/inkscape"
   xmlns:sodipodi="http://sodipodi.sourceforge.net/DTD/sodipodi-0.dtd"
   xmlns="http://www.w3.org/2000/svg"
   xmlns:svg="http://www.w3.org/2000/svg">
  <defs
     id="defs6" />
  <sodipodi:namedview
     id="namedview6"
     pagecolor="#ffffff"
     bordercolor="#000000"
     borderopacity="0.25"
     inkscape:showpageshadow="2"
     inkscape:pageopacity="0.0"
     inkscape:pagecheckerboard="0"
     inkscape:deskcolor="#d1d1d1"
     inkscape:zoom="0.48199271"
     inkscape:cx="668.0599"
     inkscape:cy="739.63775"
     inkscape:window-width="1920"
     inkscape:window-height="991"
     inkscape:window-x="-9"
     inkscape:window-y="-9"
     inkscape:window-maximized="1"
     inkscape:current-layer="svg6" />
  <g
     transform="matrix(4.0135187,0,0,4.0135187,-116.34152,-120.51761)"
     fill="#294e6a"
     id="g6">
    <g
       transform="matrix(0.1845198,0,0,0.1845198,66.392539,65.463205)"
       id="g5">
      <path
         d="m 786.14258,691.96076 c -62.7071,0.098 -188.69513,1.26858 -202.64258,2.15235 -68.75306,4.35645 -171.38071,16.66573 -217.38086,26.07226 -27.18397,5.55884 -27.86533,5.8356 -14.61914,5.9336 11.03266,0.0817 80.76727,-2.02662 128.5,-3.88477 14.02498,-0.54596 39.67504,-1.4519 57,-2.01172 31.38036,-1.01398 50.20133,-1.73471 118.41211,-4.54297 19.75174,-0.81319 36.09214,-1.29849 36.3125,-1.07812 0.22037,0.22037 -4.46499,2.0167 -10.41211,3.99219 L 670.5,722.18537 644,723.19514 c -14.57498,0.55561 -49.90006,1.70275 -78.5,2.54883 -28.59994,0.84608 -65.50004,1.95773 -82,2.4707 -16.49996,0.51296 -56.32506,1.62549 -88.5,2.47266 -106.5717,2.80601 -166.3028,4.48695 -182.67188,5.13867 l -16.17187,0.64258 -20.07813,23.04492 C 165.03504,772.18793 156,782.81626 156,783.13264 c 0,0.57745 23.46931,0.75071 112.39453,1.11719 l 6.08203,0.0254 c 29.84794,0.12147 36.31902,0.17354 90.52344,0.38476 111.92478,0.43614 208.00002,1.08744 213.5,1.44727 12.38533,0.81031 -52.06261,1.88713 -157,2.62109 -41.24992,0.28851 -92.20012,0.79203 -113.22266,1.11914 -16.96528,0.26399 -25.22169,0.44041 -30.37695,0.71485 L 228.6543,840.6307 c 1.87393,-0.44445 9.5172,-2.04705 18.8457,-3.93555 33.48538,-6.77894 67.75168,-14.11623 84.90625,-18.08594 l -40.40039,0.29688 c -2.06501,0.0152 -3.73868,-1.63423 -3.75391,-3.69922 -0.0152,-2.06501 1.63421,-3.74064 3.69922,-3.75586 l 33.29492,-0.2461 h 0.21289 l 26.36524,-0.19531 c 0.23779,-0.002 0.46981,0.022 0.69531,0.0625 17.19198,-0.13088 31.93769,-0.26105 67.48047,-0.33203 146.22002,-0.292 187.68054,-2.07425 224.35547,-9.64453 25.42629,-5.2484 33.63576,-9.20029 67.64453,-32.56055 6.32498,-4.34456 19.15002,-13.11133 28.5,-19.48242 9.34998,-6.37109 24.20002,-16.56531 33,-22.65234 8.79998,-6.08705 23.31739,-16.12906 32.26172,-22.31641 8.94434,-6.18735 15.91936,-11.50314 15.5,-11.8125 -0.34687,-0.25588 -14.21678,-0.34319 -35.11914,-0.31055 z"
         id="path1" />
      <path
         d="m 481.81551,226.80489 c -0.76228,5e-5 -4.23129,8.62262 -30.03095,74.63469 -28.96187,74.10305 -32.62925,83.39689 -96.58606,244.75786 -8.25469,20.82633 -20.11925,50.70773 -26.36523,66.40292 -14.08036,35.38179 -40.70543,103.08955 -42.78589,108.75579 5.0531,-1.07903 10.406,-2.20383 18.42501,-3.84364 39.54994,-8.08753 107.43249,-17.57022 177.28524,-25.41129 0.52214,-54.61546 0.63669,-465.29637 0.0578,-465.29633 z"
         id="path2" />
      <path
         d="m 479.52604,158.04391 c -0.58595,-0.32115 -0.53805,1.14681 0.11576,3.50065 3.33641,12.01163 17.05124,102.81614 23.34478,154.56429 18.21782,149.79475 19.56364,278.57846 3.98727,373.22916 42.16345,-4.45103 83.97382,-8.19973 119.59642,-10.45692 9.97524,-0.63207 61.72979,-1.31739 119.84723,-1.92075 -4.81263,-9.37121 -5.72397,-11.27405 -12.7035,-24.75317 -14.8636,-28.70515 -42.86213,-82.77175 -62.21844,-120.14522 -48.97854,-94.56849 -62.45498,-120.65682 -78.21465,-151.4302 -7.53753,-14.71831 -19.64966,-38.31951 -26.91616,-52.4475 -64.86171,-126.10849 -85.69657,-167.04174 -85.77329,-168.50899 -0.0309,-0.59315 -0.51034,-1.32711 -1.06542,-1.63135 z"
         id="path3" />
      <path
         d="m 262.90039,789.78889 c -2.8496,0.24024 -8.93794,0.41992 -14.88281,0.41992 h -12.73242 l -7.19922,17.00391 c -3.95986,9.35179 -6.9228,17.4518 -6.58399,18 1.17781,1.90572 6.91381,-1.16145 9.80274,-3.27539 2.88893,-2.11394 31.5957,-32.14844 31.5957,-32.14844 z"
         id="path4" />
      <path
         d="m 838.40492,659.44835 c -3.19289,14.63895 -10.78155,27.81907 -22.03907,38.27787 -12.48871,11.60264 -26.29692,18.13205 -42.69287,20.18793 -5.47846,0.68694 -90.27074,1.0342 -252.52418,1.0342 H 276.87257 v 47.54966 c 0,51.94847 -0.0353,52.28243 -5.71962,54.14411 -1.55885,0.51054 -10.02947,0.62168 -19.28038,0.25296 -15.20309,-0.60595 -17.16811,-0.90648 -25,-3.82355 -20.97094,-7.81083 -36.78061,-25.11735 -41.48826,-45.41633 -1.37139,-5.91331 -1.51491,-29.05322 -1.27419,-205.43539 0.25534,-187.08563 0.37577,-199.1242 2.04846,-204.77146 10.18216,-34.37647 40.04807,-52.89197 62.21399,-56 42.4756,-5.95579 249.25,-0.26545 249.25,-0.26545 l 249.25,-0.26545 v -46.51667 c 0,-49.52418 0.21096,-51.88942 4.8496,-54.37194 3.01691,-1.6146 29.32251,-1.3271 37.52205,0.4101 23.42108,4.9621 43.41614,23.67975 49.10673,45.96951 1.33839,5.24238 1.51205,29.86822 1.44212,204.5 -0.0639,159.6212 -0.33603,199.71605 -1.38815,204.5399 z m -18.12339,-352.5 c -0.32507,0 -2.46257,1.60432 -4.75,3.56516 -4.95021,4.24345 -15.83084,9.72201 -24.15896,12.1644 -5.64183,1.65458 -22.0578,1.78979 -275,2.26503 0,0 -223.77079,-8.03196 -269,0.50541 -2.67075,0.50413 -31.46073,6.69275 -42.40497,41 -1.43229,4.48984 -1.6093,22.62591 -1.73494,177.75 -0.077,95.0125 0.0549,172.75 0.29291,172.75 0.23805,0 2.78252,-1.77405 5.65439,-3.94233 6.03696,-4.55795 15.59897,-9.20858 24.19261,-11.76645 5.67602,-1.68945 20.49804,-1.81363 274.5,-2.29995 220.3821,-0.42194 261.11803,1.95281 272.5,-1.85077 11.38197,-3.80358 33.45191,-21.1581 38.47784,-40.34221 1.84578,-7.04539 1.91394,-13.2324 1.9671,-178.54829 0.0303,-94.1875 -0.21091,-171.25 -0.53598,-171.25 z m -2.08872,-55.5 c -3.55269,-10.33396 -13.56275,-20.24764 -25.42906,-25.18421 -4.96893,-2.06715 -8.56088,-2.7578 -16.14118,-3.10361 l -9.75,-0.44479 v 41.1163 41.11631 h 6.7899 c 12.88262,0 24.75291,-4.61711 33.75238,-13.12843 11.54418,-10.918 15.63535,-26.24253 10.77796,-40.37157 z m -568.11014,467.5 c -21.95901,0 -40.6441,13.82021 -45.75409,33.84148 -2.01002,7.87541 -1.31227,13.84053 2.5822,22.07539 5.20732,11.01088 16.08662,20.46476 27.71365,24.08258 5.09863,1.58646 13.42289,2.4689 19.99814,2.11996 l 2.25,-0.11941 v -41 -41 z"
         transform="matrix(2.0402829,0,0,2.0402829,-555.80229,-545.38679)"
         id="path5"
         sodipodi:nodetypes="sssscssssssszccsssssssssszsssssszsssssscccsssssssscccs" />
    </g>
  </g>
</svg>
