<?xml version="1.0" encoding="UTF-8" standalone="no"?>
<!-- Created with Inkscape (http://www.inkscape.org/) -->

<svg
   version="1.1"
   id="svg1"
   width="1024"
   height="1024"
   viewBox="0 0 1024 1024"
   sodipodi:docname="Istuv mees.svg"
   inkscape:version="1.3.2 (091e20e, 2023-11-25, custom)"
   inkscape:export-filename="Istuv mees.png"
   inkscape:export-xdpi="96"
   inkscape:export-ydpi="96"
   xmlns:inkscape="http://www.inkscape.org/namespaces/inkscape"
   xmlns:sodipodi="http://sodipodi.sourceforge.net/DTD/sodipodi-0.dtd"
   xmlns="http://www.w3.org/2000/svg"
   xmlns:svg="http://www.w3.org/2000/svg">
  <defs
     id="defs1">
    <inkscape:path-effect
       effect="powerstroke"
       id="path-effect3"
       is_visible="true"
       lpeversion="1.3"
       scale_width="1"
       interpolator_type="CentripetalCatmullRom"
       interpolator_beta="0.2"
       start_linecap_type="zerowidth"
       end_linecap_type="zerowidth"
       offset_points="0.2,0.5 | 0.5,0.5 | 0.85555433,0.60921957"
       linejoin_type="round"
       miter_limit="4"
       not_jump="false"
       sort_points="true"
       message="&lt;b&gt;Ctrl + click&lt;/b&gt; on existing node and move it" />
    <inkscape:path-effect
       effect="bspline"
       id="path-effect2"
       is_visible="true"
       lpeversion="1.3"
       weight="33.333333"
       steps="2"
       helper_size="0"
       apply_no_weight="true"
       apply_with_weight="true"
       only_selected="false"
       uniform="false" />
  </defs>
  <sodipodi:namedview
     id="namedview1"
     pagecolor="#ffffff"
     bordercolor="#000000"
     borderopacity="0.25"
     inkscape:showpageshadow="2"
     inkscape:pageopacity="0.0"
     inkscape:pagecheckerboard="0"
     inkscape:deskcolor="#d1d1d1"
     inkscape:zoom="0.56909182"
     inkscape:cx="538.57741"
     inkscape:cy="635.22262"
     inkscape:window-width="1920"
     inkscape:window-height="991"
     inkscape:window-x="-9"
     inkscape:window-y="-9"
     inkscape:window-maximized="1"
     inkscape:current-layer="g1" />
  <g
     inkscape:groupmode="layer"
     inkscape:label="Image"
     id="g1">
    <path
       style="fill:#2a4960;fill-opacity:1;stroke-width:0.774905"
       d="m 340.2739,729.49266 c -32.81548,-1.28727 -66.83977,-4.42247 -70.55444,-6.50131 -5.44934,-3.0496 15.16148,-5.5917 73.13746,-9.0206 11.72011,-0.69317 12.38929,-0.83422 7.23245,-1.52444 -3.12546,-0.41834 -32.18439,-1.50676 -64.57541,-2.41875 -86.19348,-2.42681 -124.11663,-4.28484 -150.84813,-7.39076 -27.97732,-3.25067 -35.479539,-5.80228 -25.05525,-8.52167 10.12338,-2.64088 20.01612,-3.50394 84.98123,-7.41388 49.37578,-2.9717 75.889,-4.10898 96.08819,-4.12171 15.34311,-0.0101 28.5595,-0.43712 29.36977,-0.94992 1.19913,-0.75891 0.88419,-1.60319 -1.69304,-4.5385 -7.37971,-8.40503 -18.89448,-28.9599 -18.89448,-33.72829 0,-2.70696 3.91704,-6.52345 16.74842,-16.31852 4.94966,-3.7784 8.79958,-7.06962 8.5554,-7.31381 -0.69412,-0.69412 -10.37615,3.71611 -20.50405,9.33975 -6.77532,3.76208 -9.43885,4.78208 -10.0223,3.83805 -0.43705,-0.70716 -1.6389,-5.74155 -2.67079,-11.18753 -2.66227,-14.05071 -2.40538,-40.994 0.58063,-60.89628 7.96923,-53.11609 32.47481,-108.70935 61.38436,-139.25628 15.33415,-16.20265 25.87362,-22.59728 44.97695,-27.28896 13.45771,-3.30514 16.20867,-4.90412 19.57167,-11.37596 2.91521,-5.61011 2.66342,-7.76915 -2.48119,-21.27604 -3.43089,-9.0076 -3.87752,-11.24417 -3.88916,-19.47513 -0.0154,-10.91384 2.38442,-17.7007 8.26347,-23.36932 l 3.62374,-3.49405 1.99022,2.43919 c 2.19189,2.68635 2.25668,2.56861 2.01252,-3.65718 -0.14878,-3.7935 0.35405,-4.84099 4.14242,-8.62936 2.37148,-2.37148 6.88873,-5.49155 10.03832,-6.93348 6.58127,-3.013 19.01576,-5.10699 23.53,-3.96249 l 3.07861,0.78051 -3.87458,3.26557 c -5.15176,4.34202 -4.88713,5.17602 0.86062,2.71225 7.43346,-3.18636 11.9529,-2.64396 25.88617,3.1067 6.84472,2.82502 16.00593,5.91887 20.35823,6.87521 4.3523,0.95635 7.91327,2.09829 7.91327,2.53766 0,0.43936 -1.22506,1.76248 -2.72236,2.94025 -3.79367,2.9841 -1.13848,2.81926 8.57142,-0.53214 4.26028,-1.47046 8.04131,-2.3782 8.40229,-2.01722 0.36099,0.36099 0.64176,3.07515 0.62395,6.03147 -0.053,8.80638 -5.45336,17.20384 -16.29989,25.34635 l -2.9744,2.23288 -1.67503,-3.29147 c -2.84322,-5.58701 -3.95417,-4.67805 -3.95417,3.23522 0,4.03268 -0.36839,6.26927 -1.04618,7.08595 -0.66901,0.80611 -3.50733,1.05282 -6.04733,1.6924 -2.54,0.63958 -11.06509,3.04232 -11.06509,3.53494 0,0.49262 8.45718,4.7529 11.13848,4.61119 l 4.81924,-0.25468 -0.67111,3.97225 c -0.52539,3.10973 0.0449,5.78414 2.62632,12.31674 1.8136,4.58947 3.0313,9.03803 2.70604,9.88568 -0.32528,0.84766 -2.4013,2.02855 -4.61337,2.62419 -4.90092,1.31968 -5.72657,2.30346 -11.59199,13.81218 -6.48428,12.72297 -7.94096,14.1429 -14.50899,14.1429 -3.79969,0 -7.7009,-1.03255 -13.66293,-3.61622 -4.58959,-1.98893 -8.52984,-3.61623 -8.7561,-3.61623 -0.22626,0 -3.16721,2.62862 -6.53546,5.84139 -5.65351,5.39254 -6.26287,5.71755 -7.93064,4.22993 -4.27753,-3.8155 -19.80216,-12.3474 -25.88716,-14.22687 -6.69247,-2.0671 -17.2015,-2.75693 -18.1683,-1.19262 -0.28929,0.46809 3.28658,2.38729 7.94638,4.2649 7.08013,2.85287 32.94906,18.36054 52.60359,31.53434 l 4.86942,3.26381 -6.75072,6.64801 c -8.91954,8.78385 -15.24681,17.27251 -20.16537,27.05382 -2.21459,4.40405 -4.65197,8.00736 -5.41641,8.00736 -0.76443,0 -8.25589,-2.57712 -16.64767,-5.72694 -8.39178,-3.14981 -15.45833,-5.52639 -15.70343,-5.28128 -0.60361,0.6036 8.92048,6.49221 21.37755,13.21747 5.64369,3.0469 10.61626,6.15978 10.29067,6.72427 -17.01928,29.50582 -16.70636,34.59545 -28.41171,52.81511 l -3.64419,5.4113 -5.91297,-2.97916 c -9.27556,-4.67335 -34.97191,-15.6254 -36.53344,-15.57094 -2.35441,0.0821 12.41941,13.03999 22.05403,19.34325 4.97783,3.25664 9.05791,6.2149 9.06682,6.57391 0.009,0.359 -5.50337,2.54522 -12.24951,4.85825 -12.60635,4.32229 -24.31338,9.39803 -23.51582,10.19559 0.24764,0.24763 3.07401,-0.0348 6.28085,-0.6276 3.20682,-0.59281 11.47233,-1.39669 18.36779,-1.78638 l 12.5372,-0.70853 27.45272,-18.1327 c 35.3866,-23.37308 45.92766,-29.72317 63.77262,-38.41766 18.27068,-8.90192 28.92111,-12.54877 37.03775,-12.68224 11.50443,-0.18919 12.10996,0.42029 39.85661,40.11723 23.89444,34.18562 63.08403,83.32132 77.12898,96.70392 12.6211,12.02589 31.64031,23.37779 46.4669,27.73445 7.17169,2.10734 34.4551,6.42613 35.37085,5.59898 1.36896,-1.23648 -2.7705,-2.65459 -11.63155,-3.98477 -19.04827,-2.85944 -37.08223,-10.86294 -55.26555,-24.52694 -18.51288,-13.91165 -45.40262,-48.19937 -86.91282,-110.8245 -9.7933,-14.77485 -19.71616,-28.83163 -22.0508,-31.2373 -7.80591,-8.04339 -18.75138,-9.7256 -36.18582,-5.56141 l -9.09038,2.17122 -25.78033,-6.27786 c -20.31782,-4.94768 -25.78034,-6.62789 -25.78034,-7.92982 0,-2.19825 14.16464,-23.08144 20.38199,-30.04955 l 4.93157,-5.52706 13.44114,7.24037 c 17.39883,9.37226 23.21035,11.23896 42.73599,13.72706 22.89199,2.91705 61.50947,9.9975 74.00686,13.56903 5.90563,1.68772 10.20072,5.36187 20.16039,17.24581 12.39299,14.7874 14.34503,18.53654 15.16866,29.13347 0.72652,9.34742 1.53885,8.50448 2.87175,-2.98 0.93174,-8.02783 -0.59165,-13.37533 -6.22105,-21.83744 -9.28552,-13.958 -16.31848,-22.09873 -21.17905,-24.51502 -14.27098,-7.09441 -59.24799,-16.21427 -86.74136,-17.58831 -13.84275,-0.69182 -13.37181,-0.4865 -37.71522,-16.44382 -9.04623,-5.92989 -14.80468,-10.30568 -13.83644,-10.51415 1.75283,-0.37742 20.27917,7.38158 35.02036,14.66682 7.9044,3.90644 10.02159,4.46791 21.18073,5.61702 17.91589,1.84487 48.97006,9.03675 77.33492,17.91011 10.14568,3.17387 10.19577,3.2061 16.5313,10.63889 9.9554,11.67955 18.37583,23.92451 19.35686,28.14867 1.30434,5.61625 1.14217,19.88579 -0.29839,26.25539 -1.03933,4.59555 -2.27472,6.53339 -7.49073,11.7499 -8.67687,8.67771 -15.75688,11.64523 -17.42323,7.30279 -0.26849,-0.69969 1.31021,-4.89314 3.50824,-9.31875 5.4244,-10.92175 5.97571,-14.38631 3.12965,-19.66769 -2.7496,-5.10242 -7.21711,-10.34663 -8.07953,-9.4842 -0.34699,0.34698 -0.0158,4.58463 0.73591,9.41701 1.03813,6.67339 1.08367,9.40751 0.18942,11.37021 -1.17526,2.57939 -3.68231,3.28613 -6.1344,1.72929 -1.71899,-1.09139 -12.46393,-32.36132 -13.30901,-38.7319 l -0.66271,-4.99566 -5.28097,0.66835 c -13.60862,1.72228 -25.82422,3.67026 -26.35703,4.20306 -0.78629,0.7863 1.92691,5.42006 17.80709,30.41208 20.46559,32.20844 45.97914,70.60355 54.59306,82.15657 8.61673,11.55679 14.80435,17.40418 27.71619,26.19212 17.76713,12.09254 25.52018,15.42539 42.36145,18.21019 12.49151,2.06555 15.03332,3.10828 16.55971,6.79331 1.58298,3.82164 0.61295,7.60652 -3.17529,12.38958 l -3.0087,3.79881 16.97933,0.74364 c 9.33865,0.40899 17.46118,0.44585 18.05007,0.0819 0.71217,-0.44014 0.55482,-1.89643 -0.46987,-4.34886 -2.16644,-5.18504 -1.96618,-6.5818 1.64842,-11.49689 l 3.189,-4.33636 14.11722,0.0726 c 16.1088,0.0829 21.93957,1.25979 11.597,2.3408 -3.61083,0.37741 -9.02657,0.6862 -12.03497,0.6862 h -5.46983 l 1.48216,2.84132 c 0.8152,1.56272 1.48503,4.28037 1.48859,6.03923 l 0.008,3.1979 22.47223,-5.5039 c 12.35973,-3.02716 22.82095,-5.51234 23.24715,-5.52263 0.42619,-0.0103 0.77491,2.28808 0.77491,5.10749 v 5.1262 l -4.39116,1.13003 c -2.41514,0.62151 -6.71587,1.91803 -9.55713,2.88114 l -5.16606,1.75112 10.07376,0.29571 c 5.54058,0.16265 14.60696,0.16265 20.14753,0 l 10.07376,-0.29571 -9.16124,-2.91233 -9.16123,-2.91232 0.68455,-4.28133 c 0.37653,-2.35474 0.90563,-4.50235 1.17584,-4.77251 0.27013,-0.27015 10.12886,1.75285 21.90835,4.49556 11.77939,2.7427 21.84123,5.03853 22.35964,5.10182 0.51841,0.0633 1.33051,-1.65623 1.80475,-3.82116 0.47424,-2.16493 1.34508,-4.83835 1.93517,-5.94093 1.01079,-1.88865 0.66705,-2.01062 -5.93763,-2.10688 -3.85577,-0.0562 -9.56767,-0.43338 -12.6931,-0.83819 l -5.68268,-0.736 3.7393,-0.80124 c 2.05668,-0.44069 9.37023,-0.64468 16.25239,-0.45333 12.02915,0.33447 12.62172,0.45672 15.32367,3.16141 2.98121,2.98423 3.59517,7.32326 1.96128,13.86231 l -0.81055,3.24413 6.56391,0.72724 c 3.61013,0.39999 11.86888,1.61837 18.35282,2.70753 16.43326,2.76043 18.14262,4.58002 6.71657,7.14948 -15.20077,3.41833 -39.93718,4.45462 -109.94425,4.60593 -45.12378,0.0976 -73.2061,0.56914 -79.55686,1.33606 -12.55702,1.51639 -46.97215,2.99171 -101.77082,4.36274 -48.03714,1.20185 -92.57451,2.86049 -93.18433,3.47031 -0.21741,0.21742 5.317,0.70632 12.29871,1.08646 40.35488,2.19724 70.85781,5.22129 72.85984,7.22331 2.03523,2.03524 -16.53266,4.93463 -44.15114,6.89423 -14.57541,1.03417 -206.88007,2.18562 -227.822,1.36411 z m 268.71484,-42.8976 c 0.39587,-0.64051 0.93764,-6.33607 1.20395,-12.65677 0.48304,-11.46489 0.47684,-11.50223 -2.60946,-15.7146 -1.81693,-2.47987 -13.48142,-12.05989 -28.26462,-23.21368 -28.15664,-21.24392 -45.87353,-37.81283 -53.52243,-50.0544 -2.48549,-3.97784 -5.61501,-8.97597 -6.95449,-11.10697 -1.33948,-2.13098 -3.06169,-3.87452 -3.82711,-3.87452 -0.76542,0 -10.16689,9.18262 -20.89215,20.40583 -47.31717,49.51396 -66.91419,69.56385 -79.54989,81.38817 l -13.5239,12.6555 41.42046,0.6576 c 51.86298,0.82338 142.4971,2.28273 155.7871,2.5084 6.48631,0.11015 10.26628,-0.24014 10.73254,-0.99456 z M 790.23529,661.6258 c -2.11232,-0.65768 -6.47961,-3.96984 -10.50105,-7.96396 -6.07727,-6.03596 -7.16795,-7.73962 -9.29886,-14.52497 -3.3627,-10.70779 -3.36045,-28.78045 0.008,-40.74957 2.54238,-9.04136 10.9718,-27.37997 12.58539,-27.37997 0.55552,0 1.01016,1.83689 1.01016,4.08197 0,8.27286 2.12526,14.78718 6.07812,18.63079 l 3.73729,3.634 0.3429,-3.61367 c 0.18853,-1.98753 -0.14623,-7.7993 -0.74392,-12.91508 -1.26487,-10.82639 -0.16458,-21.02165 3.05383,-28.29755 1.1567,-2.61486 5.7505,-10.80153 10.20844,-18.19262 8.4976,-14.08859 11.41916,-21.58079 11.41916,-29.28411 0,-4.48189 0.0597,-4.56795 1.97081,-2.83841 2.82747,2.55878 5.99125,10.53135 6.79955,17.13436 0.41249,3.36974 -0.008,11.83743 -1.02767,20.80458 -1.58956,13.94798 -1.59429,15.62575 -0.0612,21.61137 2.70194,10.54681 12.72951,25.63771 16.29827,24.52797 2.35571,-0.73255 4.98642,-7.61282 5.65719,-14.79563 0.74755,-8.0052 1.16793,-7.82319 6.62187,2.8671 6.82614,13.37983 9.47461,24.24344 9.5094,39.0064 0.055,23.19016 -8.31558,40.07345 -23.33424,47.06588 -8.42036,3.92034 -9.5621,3.48183 -5.91361,-2.27122 6.67487,-10.52515 8.20926,-22.71568 4.07033,-32.33702 -1.23635,-2.87386 -2.53928,-5.2163 -2.8955,-5.20542 -0.35623,0.0109 -2.43739,3.07983 -4.62487,6.81985 -2.1874,3.74003 -4.32513,6.40455 -4.75055,5.92115 -0.42534,-0.4834 -1.36732,-4.33975 -2.09333,-8.56965 -1.86876,-10.88829 -5.65107,-21.34258 -10.1139,-27.95488 l -3.83539,-5.68264 -0.70679,9.10388 c -0.79785,10.27582 -3.6433,20.4626 -7.84677,28.09155 -3.67367,6.66725 -6.02597,6.80644 -9.47143,0.56047 l -2.54052,-4.60555 -0.88122,3.05575 c -1.13369,3.93091 -0.0877,14.03787 2.01576,19.47837 0.90191,2.33282 3.39307,6.91492 5.53576,10.18244 l 3.89591,5.94094 -3.27931,-0.10548 c -1.80359,-0.0581 -4.90662,-0.61216 -6.8955,-1.23142 z"
       id="path1"
       sodipodi:nodetypes="sssssssssssssssssssssssscssssscsssssssssscsssssscsssssssssssssscsssssssscsssssssscsssssssssssscssscsssssssssssssssssssssssssscsssssssscsssscssscsccssscsscsscccsssssssscsssscssssssssssssssssssssscssscsscssscsssssssccssscsssssssscssscssscscc" />
  </g>
</svg>
