<?xml version="1.0" encoding="UTF-8" standalone="no"?>
<!-- Created with Inkscape (http://www.inkscape.org/) -->

<svg
   version="1.1"
   id="svg1"
   width="1024"
   height="1024"
   viewBox="0 0 1024 1024"
   sodipodi:docname="Kanuu.svg"
   inkscape:version="1.3.2 (091e20e, 2023-11-25, custom)"
   inkscape:export-filename="Kanuu.png"
   inkscape:export-xdpi="96"
   inkscape:export-ydpi="96"
   xmlns:inkscape="http://www.inkscape.org/namespaces/inkscape"
   xmlns:sodipodi="http://sodipodi.sourceforge.net/DTD/sodipodi-0.dtd"
   xmlns="http://www.w3.org/2000/svg"
   xmlns:svg="http://www.w3.org/2000/svg">
  <defs
     id="defs1">
    <inkscape:path-effect
       effect="bspline"
       id="path-effect2"
       is_visible="true"
       lpeversion="1.3"
       weight="33.333333"
       steps="2"
       helper_size="0"
       apply_no_weight="true"
       apply_with_weight="true"
       only_selected="false"
       uniform="false" />
  </defs>
  <sodipodi:namedview
     id="namedview1"
     pagecolor="#ffffff"
     bordercolor="#000000"
     borderopacity="0.25"
     inkscape:showpageshadow="2"
     inkscape:pageopacity="0.0"
     inkscape:pagecheckerboard="0"
     inkscape:deskcolor="#d1d1d1"
     inkscape:zoom="0.35355339"
     inkscape:cx="724.07735"
     inkscape:cy="156.97771"
     inkscape:window-width="1920"
     inkscape:window-height="991"
     inkscape:window-x="-9"
     inkscape:window-y="-9"
     inkscape:window-maximized="1"
     inkscape:current-layer="g1" />
  <g
     inkscape:groupmode="layer"
     inkscape:label="Image"
     id="g1">
    <path
       id="path1"
       style="fill:#2a4960;fill-opacity:1;stroke-width:3.51069"
       d="m 514.97997,426.67647 c -0.64937,-0.0628 -1.25061,0.1615 -1.96107,0.5417 -3.13003,1.67513 -3.87598,4.78873 -2.42729,10.16866 0.67738,2.51615 0.92233,5.08212 0.5417,5.69803 -0.38063,0.61588 -13.66896,13.11459 -29.52551,27.777 -15.85657,14.66242 -33.34331,31.05269 -38.85762,36.42346 l -10.02469,9.76411 6.07516,0.41827 v 0.007 c 3.3419,0.2303 27.63502,0.50951 53.98377,0.62396 l 47.90865,0.20572 -1.01483,-4.77237 c -0.55719,-2.62599 -1.26831,-5.91229 -1.58392,-7.30252 l -0.57597,-2.52331 -41.82662,-0.0281 -41.82663,-0.0211 7.30249,-7.00766 c 16.61939,-15.94919 49.86893,-46.42272 52.2833,-47.92235 2.30024,-1.42875 3.12245,-1.37851 7.21339,0.46625 4.36102,1.96663 4.84269,1.97709 8.55732,0.20573 0,0 1.34954,-0.64579 1.95419,-3.18841 0.60465,-2.54259 -5.84201,-8.73559 -5.84201,-8.73559 -6.92266,-8.93086 -8.40576,-10.61065 -10.35381,-10.79949 z m 189.52951,0.26752 c -1.47976,-0.33949 -2.67543,0.20116 -4.0524,1.16565 -2.26236,1.58459 -2.43203,2.36723 -1.77592,8.16648 0.87083,7.69695 1.86436,6.35818 -17.8826,24.23204 -8.03247,7.27047 -17.13138,15.54928 -20.22079,18.39684 -19.59606,18.06193 -37.30899,34.36938 -38.69989,35.63492 -1.81243,1.64908 -0.40306,1.58627 31.54138,-1.35766 9.65595,-0.88985 17.87031,-1.61818 18.25971,-1.61818 0.38941,0 -0.93553,-2.56365 -2.94842,-5.69803 l -3.66155,-5.69804 -10.5938,0.72682 c -9.92901,0.68059 -10.50185,0.60613 -9.003,-1.19992 0.87992,-1.06023 12.47757,-11.81352 25.76794,-23.88918 13.2904,-12.0757 25.79166,-23.46394 27.78388,-25.30856 l 3.6204,-3.35296 6.10942,2.07759 c 5.76554,1.95978 6.2656,1.96718 9.01672,0.16465 3.06031,-2.0052 3.12477,-2.91103 1.81022,-4.64893 -0.42862,-0.56666 -3.89743,-4.39876 -7.31625,-8.94132 -3.41882,-4.54252 -6.09706,-8.30693 -7.75505,-8.85214 z m -602.87263,13.60394 -5.128902,10.97092 c -7.134163,15.26671 -9.652676,25.49442 -9.668123,39.26217 -0.01545,13.56556 3.306923,24.78009 9.990394,34.17443 0.980709,1.55569 7.448231,10.42753 20.145351,17.77973 58.36718,34.7042 126.47428,43.1127 192.95791,48.84802 75.05408,6.10604 180.68256,7.15174 263.66547,4.07296 70.83142,-2.62796 130.755,-11.14722 171.66063,-16.11352 40.90563,-4.9663 117.82803,-22.04355 139.38552,-28.27756 17.53736,-5.07144 31.14972,-13.8599 40.13987,-25.21939 1.33091,-1.54042 1.8771,-2.47648 2.01591,-2.68789 8.3174,-11.84076 11.87412,-26.21165 9.76412,-42.05977 -1.54572,-11.60965 -3.85235,-18.70947 -10.17553,-31.28081 l -4.68323,-9.31159 -7.4122,6.28772 c -24.85281,21.08415 -56.00843,35.92561 -99.80796,47.55208 -51.69564,13.72249 -123.82696,23.29226 -212.89071,28.24325 -62.17514,3.45628 -159.40634,2.47511 -222.44226,-2.24902 -80.87913,-6.06135 -130.41576,-13.63069 -176.93349,-27.03649 -43.05291,-12.40735 -67.96384,-25.02883 -94.86417,-48.05958 z m 792.05239,14.1799 c 0,-0.19168 -4.67951,1.59618 -10.39492,3.97011 -12.2037,5.06888 -35.19211,12.53139 -50.27423,16.3261 -31.37381,7.89376 -75.69962,15.09426 -124.69824,20.24821 -31.3498,3.29756 -34.82581,3.76904 -34.82581,4.73122 0,0.38112 1.2886,2.88747 2.85932,5.56771 1.82896,3.12091 3.64269,4.86835 5.05347,4.86835 1.21157,0 11.17513,-1.00981 22.14068,-2.24902 76.07117,-8.59663 133.30914,-22.51731 171.1532,-41.62093 6.52283,-3.29271 18.98653,-11.06525 18.98653,-11.84175 z m -763.45943,0.26752 c -0.96939,-0.11972 1.27619,1.36359 5.71174,4.32668 15.69619,10.48557 31.55626,17.50482 58.41329,25.84335 28.85862,8.96003 63.21122,16.08084 102.7975,21.30416 29.2002,3.85291 28.01538,3.95658 31.80198,-2.90728 1.73593,-3.14671 2.94782,-5.92489 2.69474,-6.17802 -0.25312,-0.25312 -8.24378,-1.22867 -17.7592,-2.16673 -74.00804,-7.29578 -131.54589,-19.108 -170.09039,-34.92182 -8.42192,-3.4553 -12.60026,-5.18063 -13.56966,-5.30034 z m 209.79826,42.79347 -2.90043,5.72545 c -1.59603,3.14969 -2.90728,6.15765 -2.90728,6.68538 0,1.01845 18.17128,2.82446 47.75092,4.73807 9.88612,0.63957 20.24474,1.31858 23.02521,1.50851 2.78047,0.18993 8.3031,0.43357 12.26685,0.5417 l 7.20655,0.19203 6.98708,-6.71283 6.99397,-6.71284 -3.52442,-0.53485 c -1.93895,-0.2942 -13.63659,-0.84035 -25.9942,-1.21365 -20.37182,-0.61539 -32.37734,-1.3177 -59.72979,-3.49012 z m 287.97295,3.52438 -16.29183,0.61711 c -8.95926,0.33879 -27.53708,0.94203 -41.28493,1.34397 -19.25675,0.56304 -25,1.06627 -25,2.18045 0,0.79549 0.60833,4.07901 1.35081,7.29568 l 1.35077,5.84886 24.76686,-0.7474 c 13.62329,-0.40892 28.25663,-1.04868 32.51507,-1.42622 7.68779,-0.6816 7.79641,-0.73829 15.16729,-7.89906 z"
       sodipodi:nodetypes="sssssccccccccccccssczcsscsssssscccsscccssssccscccszsccccccssssccsssssssssssscssscsscccsscccccsccccsscccscccs" />
  </g>
</svg>
