<?xml version="1.0" encoding="UTF-8" standalone="no"?>
<svg
   width="1024"
   height="1024"
   viewBox="0 0 1024 1024"
   version="1.1"
   xml:space="preserve"
   style="clip-rule:evenodd;fill-rule:evenodd;stroke-linejoin:round;stroke-miterlimit:2"
   id="svg2"
   sodipodi:docname="Wave 2.svg"
   inkscape:version="1.3.2 (091e20e, 2023-11-25, custom)"
   inkscape:export-filename="Wave 2.png"
   inkscape:export-xdpi="96"
   inkscape:export-ydpi="96"
   xmlns:inkscape="http://www.inkscape.org/namespaces/inkscape"
   xmlns:sodipodi="http://sodipodi.sourceforge.net/DTD/sodipodi-0.dtd"
   xmlns="http://www.w3.org/2000/svg"
   xmlns:svg="http://www.w3.org/2000/svg"><defs
   id="defs2" /><sodipodi:namedview
   id="namedview2"
   pagecolor="#ffffff"
   bordercolor="#000000"
   borderopacity="0.25"
   inkscape:showpageshadow="2"
   inkscape:pageopacity="0.0"
   inkscape:pagecheckerboard="0"
   inkscape:deskcolor="#d1d1d1"
   inkscape:zoom="0.28432564"
   inkscape:cx="1208.1218"
   inkscape:cy="881.03204"
   inkscape:window-width="1920"
   inkscape:window-height="991"
   inkscape:window-x="-9"
   inkscape:window-y="-9"
   inkscape:window-maximized="1"
   inkscape:current-layer="g2" />
    <g
   transform="matrix(1.780263,0,0,1.780263,1234.252,1234.252)"
   id="g2"
   inkscape:label="Wave">
        
    <path
   id="path1"
   d="m -394.55029,-178.03485 c -32.10091,-1.69046 -53.17656,-5.98763 -77.8764,-15.87998 -27.31899,-10.94003 -50.34612,-25.7919 -73.00037,-47.08241 -45.94774,-43.18477 -73.25784,-111.66068 -69.56973,-174.43663 0.97663,-16.63643 2.4682,-26.63356 6.2593,-41.95421 17.73913,-71.68635 70.96188,-133.14829 138.6476,-160.11569 37.05154,-14.75952 79.13894,-19.53613 117.45121,-13.32831 36.25957,5.87575 70.09888,20.67966 97.87067,42.81719 6.43686,5.12996 21.70779,20.22865 26.51281,26.21094 13.05131,16.25289 23.09462,35.14978 27.93514,52.56042 12.02676,43.27354 -1.99587,77.79295 -35.47295,87.32129 -6.46172,1.83784 -16.42513,1.82897 -22.3648,-0.0213 -9.2833,-2.8926 -15.49112,-7.21818 -22.57966,-15.73083 -7.23772,-8.692 -13.22179,-13.29104 -24.9662,-19.18988 -20.35295,-10.22264 -42.77103,-11.96104 -63.5679,-4.93108 -12.66244,4.28118 -25.30713,12.75122 -34.41286,23.05555 -18.98745,21.48228 -26.4631,50.78827 -19.32838,79.8634 2.11307,8.60499 8.0634,21.19639 8.47181,22.27247 3.48213,6.06753 13.22356,22.45359 18.31802,27.33319 7.63901,8.59255 17.36092,17.11232 28.68448,24.15469 1.06364,0.66056 19.22183,10.94536 29.52617,14.67786 12.54346,4.54221 27.87654,8.22143 42.33243,10.15695 5.76034,0.77241 11.35199,1.02456 22.44472,1.01746 15.96167,-0.0107 25.69776,-0.83103 40.91188,-3.44128 7.37976,-1.26785 25.90908,-5.61296 28.83719,-6.76361 0.54691,-0.21486 0.99439,-0.24681 0.99439,-0.0711 0,0.74933 -8.4949,10.81749 -14.65121,17.36802 -34.85323,37.07638 -82.4275,62.46165 -133.08615,71.00981 -13.38869,2.25868 -33.64754,3.68811 -44.32121,3.12698 z m -8.83582,-17.74091 c -0.29653,-0.26103 -4.24746,-1.95325 -8.77901,-3.76091 -24.71405,-9.86218 -45.28185,-22.65957 -64.57827,-40.1803 -17.83858,-16.19607 -32.09203,-34.75556 -42.20992,-54.95403 -8.86246,-17.69297 -13.93383,-34.08792 -17.16381,-55.47076 -1.21635,-8.05808 -1.04054,-36.51173 0.26813,-43.46888 4.41792,-23.46574 10.98442,-39.89975 23.27041,-58.24262 28.47851,-42.51532 76.44343,-63.50219 131.6656,-57.60867 11.74439,1.25362 26.53943,4.82453 36.55611,8.82161 8.10603,3.23708 6.97667,1.91242 -3.31522,-3.88698 -32.36726,-18.23455 -75.22529,-22.52995 -111.08712,-11.13179 -43.46355,13.81486 -78.49435,50.01583 -92.53473,95.62619 -4.43034,14.39196 -6.46351,28.25299 -6.54164,44.60531 -0.0622,13.09572 0.66411,20.94071 3.05597,32.9568 4.80856,24.17246 13.28393,44.4757 27.2888,65.38088 12.22205,18.24166 30.02867,36.33594 48.92556,49.7122 19.35857,13.703 44.60176,24.98751 68.67301,30.6999 6.02136,1.42943 7.30874,1.607 6.50613,0.90205 z m 96.62591,-19.41362 c 0.19355,-0.31252 0.008,-0.56822 -0.41019,-0.56822 -2.77541,0 -16.48017,-2.05092 -24.59152,-3.67922 -39.56945,-7.94799 -72.24747,-25.05143 -98.42824,-51.51453 -13.47393,-13.61775 -21.94929,-25.34619 -30.16185,-41.73402 -9.35967,-18.67493 -14.31739,-40.07554 -14.31739,-61.79222 0,-14.47896 1.67448,-25.19526 5.99828,-38.39396 6.78313,-20.69743 19.26978,-39.03321 36.31463,-53.32395 1.55017,-1.30157 2.69549,-2.49128 2.54278,-2.64223 -0.15093,-0.1527 -2.69905,1.17906 -5.6609,2.96009 -26.34589,15.83913 -44.16849,41.33626 -50.52013,72.267 -2.02784,9.87638 -2.52503,14.96729 -2.4984,25.56993 0.0852,33.28529 12.0445,65.11453 34.55669,91.97182 11.18507,13.34253 26.79338,26.65843 42.05188,35.87603 20.96734,12.66422 49.86313,21.93155 76.14512,24.4175 3.43772,0.32673 7.14537,0.67832 8.23918,0.78308 4.98081,0.4759 20.41512,0.32852 20.74006,-0.1971 z m 70.72038,-219.67763 c 10.90806,-3.60642 19.41362,-12.00721 23.87947,-23.58826 3.11988,-8.09004 3.63483,-11.21525 3.63307,-22.09312 0,-8.71153 -0.19356,-10.84947 -1.56795,-17.25616 -2.27465,-10.59375 -4.94707,-18.19193 -10.02198,-28.4856 -7.32118,-14.84831 -15.31177,-25.90375 -28.29561,-39.15041 -24.27013,-24.7602 -57.07599,-42.65915 -92.85613,-50.66041 -28.76083,-6.43154 -59.01858,-6.68724 -87.9428,-0.74046 -38.04768,7.82014 -72.53513,25.66759 -102.45905,53.01853 -13.15786,12.02674 -25.68356,27.13076 -37.01957,44.63551 -6.01781,9.29218 -17.71073,32.15774 -17.21176,33.65464 0.1172,0.35513 2.15392,-2.14858 4.52447,-5.56502 13.24664,-19.0993 26.27132,-32.7295 43.68195,-45.71689 28.86562,-21.52668 62.36045,-32.97988 100.74197,-34.44305 35.9648,-1.37084 73.35373,9.54078 101.93699,29.7499 14.12739,9.98825 27.58356,23.43199 37.98555,37.94648 9.53012,13.29814 15.04719,24.69451 21.82855,45.08831 2.79493,8.40078 4.43745,12.42271 6.00716,14.70271 6.67481,9.69171 19.96762,13.26085 33.15567,8.9033 z"
   style="clip-rule:evenodd;display:inline;fill:#2a4960;fill-opacity:1;fill-rule:nonzero;stroke-width:1.77568;stroke-linejoin:round;stroke-miterlimit:2" /></g>
</svg>
