<?xml version="1.0" encoding="UTF-8" standalone="no"?>
<!-- Created with Inkscape (http://www.inkscape.org/) -->

<svg
   version="1.1"
   id="svg1"
   width="1024"
   height="1024"
   viewBox="0 0 1024 1024"
   sodipodi:docname="Boat series 4.svg"
   inkscape:version="1.3.2 (091e20e, 2023-11-25, custom)"
   xmlns:inkscape="http://www.inkscape.org/namespaces/inkscape"
   xmlns:sodipodi="http://sodipodi.sourceforge.net/DTD/sodipodi-0.dtd"
   xmlns="http://www.w3.org/2000/svg"
   xmlns:svg="http://www.w3.org/2000/svg">
  <defs
     id="defs1">
    <inkscape:path-effect
       effect="bspline"
       id="path-effect2"
       is_visible="true"
       lpeversion="1.3"
       weight="33.333333"
       steps="2"
       helper_size="0"
       apply_no_weight="true"
       apply_with_weight="true"
       only_selected="false"
       uniform="false" />
  </defs>
  <sodipodi:namedview
     id="namedview1"
     pagecolor="#ffffff"
     bordercolor="#000000"
     borderopacity="0.25"
     inkscape:showpageshadow="2"
     inkscape:pageopacity="0.0"
     inkscape:pagecheckerboard="0"
     inkscape:deskcolor="#d1d1d1"
     inkscape:zoom="0.53654489"
     inkscape:cx="560.06497"
     inkscape:cy="651.39004"
     inkscape:window-width="1920"
     inkscape:window-height="991"
     inkscape:window-x="-9"
     inkscape:window-y="-9"
     inkscape:window-maximized="1"
     inkscape:current-layer="g1" />
  <g
     inkscape:groupmode="layer"
     inkscape:label="Image"
     id="g1">
    <path
       id="path1"
       style="fill:#2a4960;fill-opacity:1"
       d="m 216.05491,536.1649 46.52499,-0.69352 -1.43549,-2.42623 c -10.01848,-16.92591 -23.34219,-26.78396 -39.24598,-29.03945 -8.51272,-1.20711 -13.04431,-0.69693 -18.89391,2.12695 -7.59976,3.66869 -13.60249,11.45166 -16.92724,21.9509 l -1.3464,4.25288 19.05646,2.16952 c 6.91396,0.78723 9.06076,1.17792 12.26756,1.65899 z" />
    <path
       id="path2"
       style="fill:#2a4960;fill-opacity:1;stroke-width:1.06065"
       d="m 563.58342,368.33507 c -0.24269,-0.002 -0.48828,0.006 -0.73541,0.029 l -75.5571,6.77824 c -3.95407,0.35469 -6.85119,3.82267 -6.49651,7.77675 0.35468,3.95408 3.82269,6.85326 7.77675,6.49858 l 29.72525,-2.66614 c 0.09,0.0238 0.65565,-0.002 0.68362,0.027 0.82754,0.87605 4.11211,11.64993 4.11211,13.48812 0,0.79414 -8.83755,1.78207 -26.78151,2.99552 -28.95261,1.95791 -53.26502,4.6127 -79.4807,8.6779 -18.7952,2.91452 -24.19823,4.67153 -24.19823,7.86582 0,3.25565 5.87172,4.33373 23.63891,4.33998 l 15.68607,0.006 -10.74325,11.93236 c -17.63458,19.58768 -40.54567,50.52526 -49.50272,66.84606 -1.55732,2.83759 -3.74711,5.29865 -4.98218,5.59743 -1.21217,0.29324 -22.25057,3.60565 -46.75164,7.36036 l -138.39256,20.1878 c -8.4461,0.95673 -15.71169,1.96063 -16.14597,2.22903 -1.39082,0.85957 -3.14799,9.08088 -2.49627,11.67756 0.75506,3.00836 -1.17224,2.97186 22.86207,0.41638 113.90624,-12.11121 259.45326,-31.42746 427.9739,-56.79885 34.90163,-5.25456 134.38502,-21.68813 160.38041,-26.49356 72.8454,-13.46601 83.52029,-15.83375 86.25686,-19.13113 1.14139,-1.37529 1.0666,-1.96238 -0.43711,-3.45956 -1.55939,-1.55261 -4.04962,-1.78235 -17.93996,-1.6552 -18.38813,0.1683 -43.15547,2.10557 -94.08747,7.35622 -27.71459,2.85713 -101.79026,11.01439 -112.7007,12.41089 -1.18753,0.15201 -11.18185,-9.03654 -27.57701,-25.35212 l -25.71464,-25.58827 5.25769,-2.51905 c 5.35796,-2.56595 8.06864,-5.45118 6.55037,-6.97298 -0.46443,-0.46565 -13.52943,-1.08593 -29.03333,-1.3776 l -28.18813,-0.53033 -2.43205,-7.21328 c -1.76025,-5.22087 -2.08024,-7.32432 -1.15801,-7.62138 0.0381,-0.0123 0.69178,-0.0699 0.76234,-0.0849 l 30.41094,-2.72828 c 3.95407,-0.35468 6.85326,-3.82267 6.49858,-7.77674 -0.33251,-3.70694 -3.40296,-6.48701 -7.04341,-6.52759 z m 12.51655,49.34735 11.4849,11.98621 c 6.31755,6.59175 14.55835,15.32522 18.31078,19.40873 l 6.82174,7.42458 -7.9549,0.87628 c -4.3752,0.48223 -15.05285,1.70972 -23.72799,2.72829 l -15.77309,1.85199 -10.86342,-12.27416 c -20.63224,-23.3108 -23.84429,-27.12752 -23.86263,-28.36421 -0.0217,-1.45983 6.61683,-2.14102 29.40206,-3.01624 z m -75.8119,5.27219 2.80078,4.04582 c 1.54043,2.22509 9.0599,11.88074 16.70945,21.45545 7.64956,9.57471 13.76051,17.55365 13.58135,17.73281 -0.17917,0.17916 -12.23088,2.02138 -26.78358,4.09347 -14.55274,2.07208 -39.3474,5.92055 -55.09809,8.55152 -15.75069,2.63096 -29.95021,5.06183 -31.55446,5.40271 -1.60424,0.34087 -2.91679,0.36958 -2.91679,0.0621 0,-1.15894 9.0357,-16.51765 15.54935,-26.42935 5.78215,-8.79859 16.94993,-23.80462 20.91891,-28.1094 1.18814,-1.28867 24.04502,-4.89885 38.88582,-6.14227 z m 354.26258,39.59223 c -0.32475,-0.0211 -0.77301,0.0595 -1.26574,0.24858 -2.40401,0.92251 -47.25892,10.01213 -81.99974,16.61623 -96.35674,18.31707 -205.59871,35.35085 -335.697,52.34493 -64.17196,8.38246 -209.73702,24.65294 -252.96599,28.27514 -8.45869,0.70874 -15.72558,1.58 -16.14804,1.93693 -1.92868,1.62953 17.50898,70.65103 20.32023,72.15554 2.4173,1.2937 28.77797,4.99913 45.14823,6.34736 21.7101,1.788 49.94515,6.4197 83.68395,8.23872 128.48861,6.9274 247.17889,13.13527 370.96166,-4.6238 21.47889,-3.68589 38.06421,-11.62595 58.83109,-26.96174 10.55059,-7.79132 24.49104,-20.7109 21.09292,-19.54753 -1.16671,0.39944 -13.14498,3.52538 -26.61785,6.94605 -55.90087,14.19281 -114.52224,22.34272 -190.28589,26.45213 -31.7755,1.7235 -39.34024,1.17795 -15.90981,-1.14766 100.69561,-9.99462 185.6502,-24.36872 234.79607,-39.7248 9.30165,-2.90641 9.48472,-3.02946 16.20397,-10.99393 19.58854,-23.21867 41.48488,-57.72534 59.69701,-94.07505 5.87443,-11.72485 10.68112,-21.67819 10.68112,-22.12043 0,-0.22113 -0.20144,-0.34555 -0.52619,-0.36667 z" />
  </g>
</svg>
