<?xml version="1.0" encoding="UTF-8" standalone="no"?>
<svg
   version="1.1"
   id="logo"
   width="1024"
   height="1024"
   viewBox="0 0 1024 1024"
   sodipodi:docname="Tuna 1.svg"
   inkscape:version="1.3.2 (091e20e, 2023-11-25, custom)"
   inkscape:export-filename="Tuna 1.png"
   inkscape:export-xdpi="96"
   inkscape:export-ydpi="96"
   xmlns:inkscape="http://www.inkscape.org/namespaces/inkscape"
   xmlns:sodipodi="http://sodipodi.sourceforge.net/DTD/sodipodi-0.dtd"
   xmlns="http://www.w3.org/2000/svg"
   xmlns:svg="http://www.w3.org/2000/svg">
  <defs
     id="defs1" />
  <sodipodi:namedview
     id="namedview1"
     pagecolor="#ffffff"
     bordercolor="#000000"
     borderopacity="0.25"
     inkscape:showpageshadow="2"
     inkscape:pageopacity="0.0"
     inkscape:pagecheckerboard="0"
     inkscape:deskcolor="#d1d1d1"
     inkscape:zoom="0.29640198"
     inkscape:cx="413.29009"
     inkscape:cy="-187.24571"
     inkscape:window-width="1920"
     inkscape:window-height="991"
     inkscape:window-x="-9"
     inkscape:window-y="-9"
     inkscape:window-maximized="1"
     inkscape:current-layer="logo" />
  <path
     id="logo-body"
     fill="#000000"
     d="m 638.9505,322.02068 c -0.43616,0 -1.33068,3.01658 -1.98942,6.70278 -2.58342,14.45579 -13.76301,29.28092 -30.54705,40.51155 -9.08896,6.08152 -28.83406,17.04664 -38.48164,21.36904 -12.20075,5.46628 -16.73022,7.23942 -43.7791,17.12418 -10.13707,3.70438 -29.32478,9.99343 -30.48923,9.99343 -0.59709,0 -4.25883,-2.6274 -8.137,-5.83531 -16.63335,-13.75851 -42.64864,-28.8728 -61.63772,-35.81556 -15.78788,-5.77235 -35.90135,-9.68202 -36.78136,-7.14807 -0.18092,0.52113 2.54795,2.72517 6.06081,4.89838 13.68446,8.4662 26.41843,21.37587 33.4965,33.95338 2.74317,4.87455 3.19799,6.58461 3.20391,12.006 0.009,8.3234 -1.94565,11.11909 -8.83677,12.67108 -5.4199,1.22068 -8.13272,3.20862 -10.3115,7.53555 -4.41885,8.77562 -13.45646,11.76003 -25.55034,8.43774 -1.71221,-0.47036 -2.42004,0.12585 -4.13501,3.48728 -1.13765,2.23003 -2.98067,4.80221 -4.09454,5.71962 -2.73053,2.24892 -10.39341,4.01932 -14.14001,3.26753 -1.67517,-0.3361 -4.19399,-0.84874 -5.59817,-1.14508 -2.26333,-0.47769 -2.87984,-0.003 -5.46517,4.19863 -4.66727,7.58533 -9.23769,8.88255 -22.30015,6.32687 -2.54174,-0.4973 -3.04194,-0.18684 -4.73648,2.97256 -3.88813,7.24911 -10.82634,9.53027 -19.52418,6.41362 -4.30818,-1.54375 -5.00921,-1.58896 -5.41311,-0.35277 -0.25542,0.7817 -1.99957,2.95965 -3.87476,4.84635 -5.25219,5.28432 -10.1516,5.61631 -20.16036,1.35905 -1.19814,-0.50962 -2.2061,0.28189 -4.02514,3.16344 -4.21757,6.68108 -10.56373,8.42633 -17.5926,4.84057 -5.34263,-2.72561 -6.98793,-2.41717 -9.80837,1.84483 -4.38062,6.6196 -14.17267,7.64153 -26.03033,2.71235 -9.48954,-3.94475 -14.07749,-8.63891 -26.22697,-26.8342 -28.07746,-42.04945 -48.86869,-64.31539 -72.91503,-78.07368 -8.10179,-4.63551 -19.687434,-8.82001 -23.323787,-8.42617 -2.634943,0.28544 -2.605318,0.34682 4.487787,8.81364 7.43143,8.87064 22.00606,30.65351 28.01978,41.21711 19.03168,33.43095 25.21016,58.12713 25.25538,78.03321 0.0383,16.84865 -4.15415,27.55746 -9.04497,40.87011 -12.17963,33.15257 -22.78944,52.16704 -44.866344,77.37967 -7.139563,8.15369 -8.262345,9.85459 -6.685421,10.10332 3.439372,0.54254 13.656555,-2.60436 22.392685,-6.8936 17.17926,-8.43461 34.14745,-22.29311 50.51078,-41.2576 13.12023,-15.20594 17.47143,-20.82343 26.56239,-34.30615 11.9926,-17.78629 19.39045,-23.68644 33.09746,-26.38313 8.16327,-1.60602 14.2222,-0.7722 16.88126,2.31907 1.16219,1.35111 2.5304,3.1965 3.0362,4.10033 0.82774,1.47908 1.33086,1.5198 5.02564,0.39325 10.40051,-3.17119 15.61993,-1.80288 19.316,5.06035 2.08019,3.86267 2.94317,4.0191 7.75532,1.44002 7.33091,-3.92914 15.52223,-1.51414 19.1772,5.65021 2.21978,4.35113 2.27677,4.3718 7.21748,2.30753 4.58665,-1.91643 11.90035,-1.33519 15.37762,1.22603 1.3943,1.02701 3.3877,3.45832 4.42996,5.40155 1.68993,3.15067 2.2015,3.47532 4.73646,2.99572 8.91791,-1.6876 10.67221,-1.66027 14.96125,0.23717 3.21901,1.42393 4.84834,2.90669 6.28635,5.72543 1.06784,2.09308 2.3894,4.08519 2.93789,4.42418 0.54848,0.339 3.12717,0.0716 5.7312,-0.59567 8.57392,-2.19747 15.94736,1.08449 19.94638,8.88304 1.63816,3.19446 2.09448,3.49223 4.40683,2.85691 4.36056,-1.19806 11.83518,-0.71162 16.48219,1.07568 3.74403,1.43996 5.16192,2.80399 9.23583,8.85992 3.20808,4.76878 4.81796,8.13326 4.81745,10.08597 -0.003,10.20875 -21.936,38.74287 -41.58726,54.10214 l -6.05505,4.73071 5.24542,0.28336 c 9.16307,0.49106 27.95102,-5.33057 45.20755,-14.007 15.17968,-7.63214 28.05729,-16.47071 44.00461,-30.21738 l 10.33466,-8.91198 6.72012,1.51521 c 3.69573,0.83264 14.39439,3.2613 23.77489,5.39574 28.41462,6.46547 64.94242,11.54433 98.54052,13.70628 15.77721,1.01525 22.74152,1.61104 23.12139,1.98365 0.20757,0.20372 -0.75375,2.00449 -2.13404,3.99622 -1.38024,1.99173 -2.5099,3.97892 -2.5099,4.4184 0,0.43944 1.43526,2.54617 3.18656,4.68441 8.74521,10.67725 11.61272,21.60248 10.73945,40.92217 -0.39668,8.77565 -0.2428,12.75224 0.5263,13.52122 0.59889,0.59889 1.34409,1.08725 1.65977,1.08725 2.12686,0 12.12867,-9.95831 19.98686,-19.90014 7.90185,-9.99686 21.72027,-35.35358 25.56191,-46.90202 0.69348,-2.08456 1.49668,-4.073 1.78124,-4.4184 0.28455,-0.34537 6.48553,-1.32858 13.78145,-2.18606 44.58418,-5.23993 98.60178,-18.42617 135.96964,-33.19577 9.10524,-3.59885 34.0123,-14.55488 43.58823,-19.17143 10.68941,-5.1533 34.87206,-18.70738 43.11402,-24.16814 13.15459,-8.71567 15.88284,-11.97069 12.43974,-14.82821 -1.9007,-1.57742 -14.61789,-4.59997 -27.33157,-6.50035 -6.97775,-1.04299 -10.84523,-2.01518 -10.42139,-2.61401 0.37075,-0.5238 4.44839,-3.93253 9.06234,-7.57606 21.45671,-16.94385 23.35268,-18.59432 23.3527,-20.35118 0,-3.22159 -19.54001,-15.91153 -48.12231,-31.25261 -56.82301,-30.49883 -115.42684,-51.0993 -169.80733,-59.68299 -7.03537,-1.1105 -13.69091,-2.20616 -14.78777,-2.43475 -1.57659,-0.32859 -2.64089,-2.35256 -5.08344,-9.66956 -6.78954,-20.33916 -19.94096,-43.99694 -34.08639,-61.30808 -5.63896,-6.90095 -12.69808,-13.79879 -14.11688,-13.79879 z m -10.12067,97.4475 c 20.84846,0.003 41.34033,1.02591 60.19193,3.06514 19.73434,2.13467 57.31888,9.35286 71.0644,13.64841 2.34511,0.73285 6.09157,1.80272 8.32204,2.37693 2.23057,0.5742 3.82555,1.41436 3.54515,1.86796 -0.289,0.46772 -1.84442,0.46704 -3.58562,-0.006 -1.68961,-0.45866 -11.80764,-2.31214 -22.49099,-4.11765 -110.32021,-18.64433 -211.25067,-9.01576 -356.74464,34.04011 -6.25367,1.85064 -14.99621,4.406 -19.4259,5.67915 -8.37337,2.40656 -10.94927,2.85457 -8.52447,1.47473 3.18366,-1.8117 83.59746,-28.22275 108.01347,-35.47437 27.37374,-8.13006 70.99075,-16.87501 97.3087,-19.51265 20.27459,-2.03147 41.47754,-3.04597 62.32593,-3.04197 z m 106.94937,33.9071 c -0.16848,0.32625 -1.09889,1.15951 -2.90319,2.70655 -6.30764,5.40853 -13.56675,13.3225 -17.63306,19.22348 -5.70407,8.27753 -12.64452,23.64265 -15.30244,33.87243 -6.17899,23.78161 -0.63934,51.5907 14.22096,71.35931 6.12427,8.14712 17.2304,18.19044 24.26645,21.95319 l 6.02614,3.22703 -3.31956,0.68242 c -17.35618,3.58417 -43.85023,6.82248 -68.69328,8.39146 -48.85928,3.08568 -108.55251,-1.4071 -158.70931,-11.94237 -34.79292,-7.30811 -58.38506,-14.40569 -117.01798,-35.19677 -88.61036,-31.42106 -111.37517,-37.3573 -193.77308,-50.55704 -15.30158,-2.45125 -18.71877,-3.25023 -16.10631,-3.76488 1.82399,-0.35932 29.74939,-0.88827 62.05989,-1.17401 72.87249,-0.64464 102.20332,-1.98675 150.18485,-6.86467 12.76782,-1.29802 27.48123,-2.96365 32.69261,-3.70707 5.21139,-0.74343 13.0993,-1.81543 17.52898,-2.37691 4.42968,-0.56146 20.41926,-2.72072 35.5322,-4.8001 55.06954,-7.57679 81.56184,-10.73833 104.6997,-12.49178 17.13427,-1.2985 104.81521,-1.66259 111.55282,-0.46266 3.92524,0.69903 4.05846,0.63819 6.39624,-3.0651 5.44765,-8.62964 20.10181,-22.21156 26.62603,-24.68286 1.24928,-0.4732 1.83997,-0.65589 1.67134,-0.32965 z m 101.39746,25.66023 a 15.673034,15.673034 0 0 1 15.67257,15.67258 15.673034,15.673034 0 0 1 -15.67257,15.67254 15.673034,15.673034 0 0 1 -15.67254,-15.67254 15.673034,15.673034 0 0 1 15.67254,-15.67258 z m -119.47005,4.06559 5.79479,0.0297 c 13.49922,0.0743 76.7568,7.05457 90.35725,9.97031 0.25406,0.0545 0.35394,0.22001 0.561,0.30649 a 22.84731,22.84731 0 0 0 -0.0924,1.30125 22.84731,22.84731 0 0 0 22.84954,22.84955 22.84731,22.84731 0 0 0 22.38691,-18.55261 l 8.46667,0.48001 c 12.82375,0.72365 33.23627,2.87529 33.23627,3.50463 0,0.29107 -4.29801,4.48458 -9.55394,9.32259 -12.57283,11.57306 -18.84008,18.70494 -25.5503,29.06074 -3.03917,4.69025 -6.98264,9.93581 -8.76163,11.659 l -3.23283,3.13454 -3.11137,-2.61405 c -3.70694,-3.11925 -5.70295,-7.48903 -5.6618,-12.38768 0.0367,-4.34799 1.08066,-5.80308 6.60446,-9.23582 7.07262,-4.39525 17.16913,-12.07675 16.60946,-12.63638 -0.2884,-0.2884 -1.72351,0.35835 -3.18655,1.44003 -4.7641,3.52222 -15.69282,8.54976 -20.05627,9.22425 -5.85002,0.90429 -7.58183,1.45735 -7.58183,2.4174 0,0.4509 0.7826,1.06653 1.74075,1.37063 1.48812,0.47228 1.73445,1.55676 1.68292,7.42567 -0.0494,5.63845 0.34082,7.5203 2.18029,10.49656 2.64507,4.27982 8.9791,9.13175 11.91925,9.13175 2.82886,0 12.8093,-10.53559 16.06005,-16.95067 l 2.55619,-5.04299 4.90995,0.55519 c 2.69912,0.30516 12.57845,1.25108 21.95895,2.1051 9.3805,0.85402 17.42659,1.89354 17.87598,2.30752 2.52848,2.32922 -33.50877,22.58616 -61.45843,34.54905 -19.87698,8.5076 -40.41,14.77808 -62.06569,18.95166 -15.88268,3.06101 -31.36735,3.8198 -39.58046,1.94317 -18.2995,-4.18131 -33.43796,-17.26871 -42.90004,-37.09369 -6.91948,-14.49767 -9.00756,-30.71752 -6.15335,-47.78687 1.70552,-10.19975 3.36188,-15.25652 8.29315,-25.31322 z m -129.13386,11.87878 c -6.72314,-0.0545 -13.47736,0.10304 -20.29916,0.46846 -26.70766,1.43061 -50.47793,4.86104 -47.83315,6.90518 1.23164,0.95188 10.76105,6.07751 24.08719,12.95444 8.33822,4.30295 21.11302,11.0369 28.38989,14.96702 18.17676,9.81696 30.74672,15.58857 41.30965,18.96321 7.81235,2.49587 11.46482,3.35356 22.68186,5.32059 2.06513,0.36214 8.58387,0.0865 14.57374,-0.347 -7.49567,-5.30034 -11.96283,-13.90061 -11.98866,-23.08088 0.0119,-12.71254 8.47923,-23.86509 20.72135,-27.2911 -4.08807,-1.06217 -7.95738,-1.98127 -11.11536,-2.60247 -20.48452,-4.02926 -40.35798,-6.09382 -60.52735,-6.25745 z m 182.73864,4.55141 c -0.11548,-0.12704 -0.6529,0.46046 -1.59616,1.68292 -9.4717,12.27501 -14.94057,32.09976 -12.64214,45.8437 2.90824,17.39051 13.48718,29.55372 29.64486,34.09219 6.22657,1.74892 25.09393,1.29414 33.06274,-0.79811 5.18568,-1.36148 5.15628,-1.36305 -5.71382,-0.85011 -13.41349,0.63288 -21.75817,-0.69969 -30.72634,-4.89841 -12.60745,-5.90264 -20.28824,-16.70914 -22.35799,-31.45503 -1.69266,-12.05932 0.49162,-23.08245 7.25796,-36.64834 2.27494,-4.56104 3.26319,-6.75728 3.07089,-6.96881 z"
     style="fill:#2a4960;fill-opacity:1;stroke-width:2.96102" />
  <path
     id="logo-eye"
     fill="#000000"
     d="m 276.28631,158.1601 a 2.5720139,2.5720139 0 0 1 -2.57202,2.57201 2.5720139,2.5720139 0 0 1 -2.57201,-2.57201 2.5720139,2.5720139 0 0 1 2.57201,-2.57202 2.5720139,2.5720139 0 0 1 2.57202,2.57202 z" />
  <path
     id="path1"
     style="fill:#2a4960;stroke-width:4;stroke-linecap:round;paint-order:markers stroke fill"
     d="m 845.48892,494.98444 a 8.4641275,8.4641275 0 0 1 -8.46412,8.46412 8.4641275,8.4641275 0 0 1 -8.46413,-8.46412 8.4641275,8.4641275 0 0 1 8.46413,-8.46413 8.4641275,8.4641275 0 0 1 8.46412,8.46413 z" />
</svg>
