<?xml version="1.0" encoding="UTF-8" standalone="no"?>
<!-- Created with Inkscape (http://www.inkscape.org/) -->

<svg
   version="1.1"
   id="svg1"
   width="1024"
   height="1024"
   viewBox="0 0 1024 1024"
   sodipodi:docname="eBay Lake 1.svg"
   inkscape:version="1.3.2 (091e20e, 2023-11-25, custom)"
   inkscape:export-filename="eBay Lake 1.png"
   inkscape:export-xdpi="96"
   inkscape:export-ydpi="96"
   xmlns:inkscape="http://www.inkscape.org/namespaces/inkscape"
   xmlns:sodipodi="http://sodipodi.sourceforge.net/DTD/sodipodi-0.dtd"
   xmlns="http://www.w3.org/2000/svg"
   xmlns:svg="http://www.w3.org/2000/svg">
  <defs
     id="defs1" />
  <sodipodi:namedview
     id="namedview1"
     pagecolor="#ffffff"
     bordercolor="#000000"
     borderopacity="0.25"
     inkscape:showpageshadow="2"
     inkscape:pageopacity="0.0"
     inkscape:pagecheckerboard="0"
     inkscape:deskcolor="#d1d1d1"
     inkscape:zoom="0.29640198"
     inkscape:cx="475.70532"
     inkscape:cy="-8.4344916"
     inkscape:window-width="1920"
     inkscape:window-height="991"
     inkscape:window-x="-9"
     inkscape:window-y="-9"
     inkscape:window-maximized="1"
     inkscape:current-layer="g1" />
  <g
     inkscape:groupmode="layer"
     inkscape:label="Image"
     id="g1">
    <path
       style="fill:#2a4960;fill-opacity:1;stroke-width:1.73432"
       d="m 495.95823,616.07078 c -0.30524,-0.13528 -8.04726,-0.50502 -17.20448,-0.82153 -9.15722,-0.3165 -19.89614,-0.81199 -23.86427,-1.10109 -6.73356,-0.49057 -9.81439,-0.8132 -21.92183,-2.2958 -14.57099,-1.78429 -24.25642,-4.85645 -26.08554,-8.27419 -0.86232,-1.61128 0.32189,-3.78013 3.05374,-5.59292 2.51482,-1.66874 10.09669,-4.46447 15.67822,-5.78117 2.06041,-0.48604 4.9949,-1.22838 6.52111,-1.64961 1.5262,-0.42125 4.1485,-1.04693 5.82732,-1.39039 1.67882,-0.34349 4.05138,-0.84124 5.27234,-1.10614 1.22096,-0.2649 3.59351,-0.74451 5.27234,-1.06581 1.67882,-0.3213 5.05034,-0.96905 7.49227,-1.43945 2.44192,-0.47042 5.81345,-1.11689 7.49227,-1.43663 7.66855,-1.46052 9.36721,-1.80841 12.48712,-2.55737 8.96962,-2.15327 15.27761,-4.79225 16.38037,-6.85278 0.9799,-1.83094 0.58586,-2.68948 -1.90404,-4.14867 -2.33159,-1.3664 -3.65612,-1.87997 -8.09403,-3.13838 -3.52417,-0.9993 -13.12904,-3.00521 -18.31444,-3.82484 -3.62294,-0.57265 -5.19767,-0.79388 -17.48196,-2.45587 -9.0514,-1.2246 -22.41443,-2.59581 -35.24143,-3.6162 -3.81551,-0.30354 -7.81138,-0.68674 -8.87973,-0.85157 -2.1751,-0.33557 -12.69249,-1.19971 -23.58678,-1.93793 -19.38515,-1.31359 -23.05954,-1.58905 -25.31465,-1.89776 -1.33896,-0.18332 -6.55525,-0.5887 -11.59172,-0.90086 -12.52047,-0.77602 -32.84091,-2.15545 -53.00086,-3.5979 -11.60059,-0.83003 -16.27113,-1.12832 -38.29383,-2.44568 -5.18909,-0.3104 -14.6793,-0.95635 -21.08936,-1.43544 -6.41005,-0.47911 -15.02616,-1.09987 -19.14691,-1.37952 -12.36234,-0.83889 -19.90816,-1.45152 -48.00604,-3.89743 -11.73255,-1.02131 -17.25621,-1.58587 -24.14176,-2.46742 -3.81551,-0.48851 -8.93523,-1.11724 -11.37715,-1.39717 -5.68279,-0.65147 -11.74709,-1.47674 -13.87458,-1.88818 -7.84772,-1.51762 -14.106514,-2.71241 -15.262045,-2.91347 -3.061518,-0.53271 -10.445456,-2.69142 -14.42956,-4.21849 -7.8818,-3.02105 -8.746063,-6.24348 -2.682613,-10.00219 1.721114,-1.06692 12.974958,-4.83745 14.438228,-4.83745 0.546186,0 2.058056,-0.23556 3.359709,-0.52344 9.655491,-2.13556 22.028851,-4.00897 42.047941,-6.36635 6.39077,-0.75255 9.34103,-1.05261 25.25173,-2.56829 10.0559,-0.95793 23.73505,-2.12777 31.91153,-2.72906 4.42599,-0.32549 10.68104,-0.83832 13.90014,-1.13962 3.21909,-0.3013 7.64222,-0.54782 9.82918,-0.54782 2.18696,0 6.42107,-0.25127 9.40915,-0.55838 5.79232,-0.59534 20.24375,-1.44495 37.89936,-2.22812 21.1439,-0.9379 34.78625,-1.64299 42.17871,-2.17996 4.12075,-0.2993 10.58203,-0.553 14.35842,-0.56379 8.81908,-0.0252 25.73319,-1.11689 26.36101,-1.70149 1.36979,-1.27547 -8.14663,-13.48978 -17.4765,-22.43106 -18.66481,-17.88747 -19.91303,-19.30238 -19.91303,-22.57213 0,-2.28383 1.3062,-3.22369 4.51083,-3.24572 5.83547,-0.0401 14.46721,5.12995 22.50522,13.47972 6.19887,6.4393 10.99472,12.61288 17.61475,22.67509 8.19399,12.45454 7.99879,12.20284 9.31296,12.00825 1.48583,-0.22 2.37626,-2.84162 3.26379,-9.60939 3.57724,-27.27789 8.92808,-43.90971 18.56929,-57.71824 4.0087,-5.74144 7.56272,-9.3434 11.91046,-12.07112 3.42485,-2.14871 5.02638,-2.6547 9.43471,-2.9808 2.41756,-0.17884 3.57024,0.0439 5.5421,1.07077 7.02671,3.65937 6.09574,11.88611 -2.68119,23.69335 -1.02107,1.37359 -5.26669,6.45956 -9.43472,11.30215 -13.39744,15.56566 -14.05496,16.49017 -18.42869,25.91184 -1.21838,2.62455 -2.91203,11.32679 -2.9645,15.23191 l -0.0597,4.43987 6.93729,0.1839 c 3.81551,0.10112 12.55649,-0.0806 19.42441,-0.40394 6.86791,-0.32331 18.23119,-0.72765 25.25172,-0.89857 7.02054,-0.17083 21.5056,-0.5491 32.18902,-0.84047 24.85195,-0.67777 120.50838,-0.68268 146.23803,-0.007 10.83605,0.28434 26.69469,0.66226 35.24143,0.83981 8.54674,0.17756 16.91311,0.45076 18.59193,0.60715 1.67882,0.15643 10.54468,0.53519 19.7019,0.84184 42.57374,1.42563 72.79624,2.92438 89.07478,4.41728 3.20503,0.29394 7.45065,0.53265 9.43471,0.53046 1.98406,-0.002 6.10481,0.24399 9.15722,0.54702 5.87616,0.58336 15.98365,1.4585 26.0842,2.25846 20.52172,1.62532 31.4439,2.57659 37.73885,3.28685 2.74717,0.30997 7.49227,0.82548 10.54468,1.14559 11.17743,1.17217 23.83581,2.72042 31.35654,3.83523 1.98407,0.2941 5.85507,0.81341 8.60224,1.15403 8.38602,1.03978 14.74661,2.13818 23.03179,3.9773 4.20345,0.93309 11.83802,3.37042 13.59709,4.34087 2.73017,1.50619 2.44349,2.60579 -1.08636,4.16687 -6.54188,2.89311 -19.15368,5.08631 -39.70489,6.90468 -26.63652,2.35679 -33.10402,2.8203 -54.38834,3.89803 -5.34172,0.27048 -11.83502,0.63225 -14.42956,0.80394 -13.2882,0.87932 -54.98223,2.68564 -96.84454,4.19561 -7.93626,0.28625 -22.9208,0.91927 -33.29899,1.40672 -10.37818,0.48743 -23.98914,1.10861 -30.24657,1.3804 -19.81507,0.86064 -33.22484,1.59709 -45.23112,2.48402 -6.41006,0.47352 -15.02617,1.10405 -19.14692,1.40117 -13.9235,1.00397 -31.77579,2.59843 -37.46135,3.34584 -12.14317,1.59631 -16.80773,2.41801 -21.08936,3.71506 -9.51463,2.88227 -4.01279,7.89767 11.37715,10.37119 3.98964,0.64123 8.75816,1.41765 13.87458,2.25913 9.18868,1.51118 31.14364,4.17781 52.4459,6.36997 2.74716,0.28271 8.36637,0.90357 12.48712,1.37971 7.98903,0.92307 15.49408,1.72372 23.58678,2.51627 6.88133,0.67391 16.95417,1.92586 26.91667,3.34548 1.98407,0.28273 5.7302,0.78467 8.32475,1.11544 2.59455,0.33077 6.84017,0.97313 9.43471,1.42744 2.59455,0.45432 6.21581,1.08551 8.04726,1.40263 11.36268,1.96759 19.26559,3.81525 27.19416,6.35789 7.46933,2.39537 10.47498,4.27989 10.7147,6.71805 0.13892,1.41318 -0.16528,1.97652 -1.66495,3.0822 -3.87985,2.86069 -13.06461,5.68608 -28.19666,8.67376 -5.72085,1.12953 -19.01469,2.95728 -28.58163,3.92966 -3.0524,0.31024 -8.92135,0.93281 -13.0421,1.38349 -4.12075,0.45068 -10.86379,1.0707 -14.98454,1.37781 -51.88916,3.8673 -79.65438,4.94832 -136.52583,5.31553 -20.60375,0.13302 -37.7111,0.13111 -38.01634,-0.003 z m -73.81275,-96.79379 c 19.93116,-1.06274 36.34622,-2.78883 43.07558,-4.5295 1.10376,-0.2855 2.60222,-0.52524 3.3299,-0.53275 1.84112,-0.0189 7.44366,-1.95401 9.70627,-3.35237 4.31318,-2.66569 0.85698,-6.15756 -8.10571,-8.18933 -16.73852,-3.79452 -49.02537,-6.76599 -73.46809,-6.76152 l -13.25244,0.002 0.39163,5.00601 0.39161,5.006 -11.83593,-0.14984 -11.83594,-0.14985 -1.94244,-3.85416 c -1.06834,-2.1198 -2.35045,-4.09815 -2.84918,-4.39635 -0.94714,-0.56636 -19.21779,0.28713 -29.33982,1.37058 -22.53786,2.41241 -33.93874,4.84136 -37.60672,8.01208 -1.93273,1.67071 -2.01353,1.86629 -1.31235,3.17645 2.39262,4.47064 21.42568,7.78591 56.12353,9.77581 10.48755,0.60147 64.73577,0.30195 78.5301,-0.43358 z"
       id="path1"
       sodipodi:nodetypes="cssssssssssssssssssssssssssssssssssssssssssssssssssssssssssssscsssscsssscsssssssssssssssssssssssssssssssssssscccssssccccccsssssscc" />
  </g>
</svg>
