<?xml version="1.0" encoding="UTF-8" standalone="no"?>
<!-- Created with Inkscape (http://www.inkscape.org/) -->

<svg
   version="1.1"
   id="svg1"
   width="1024"
   height="1024"
   viewBox="0 0 1024 1024"
   sodipodi:docname="Telk.svg"
   inkscape:version="1.3.2 (091e20e, 2023-11-25, custom)"
   inkscape:export-filename="Telk.png"
   inkscape:export-xdpi="96"
   inkscape:export-ydpi="96"
   xmlns:inkscape="http://www.inkscape.org/namespaces/inkscape"
   xmlns:sodipodi="http://sodipodi.sourceforge.net/DTD/sodipodi-0.dtd"
   xmlns="http://www.w3.org/2000/svg"
   xmlns:svg="http://www.w3.org/2000/svg">
  <defs
     id="defs1" />
  <sodipodi:namedview
     id="namedview1"
     pagecolor="#ffffff"
     bordercolor="#000000"
     borderopacity="0.25"
     inkscape:showpageshadow="2"
     inkscape:pageopacity="0.0"
     inkscape:pagecheckerboard="0"
     inkscape:deskcolor="#d1d1d1"
     inkscape:zoom="0.4191757"
     inkscape:cx="749.08922"
     inkscape:cy="163.41596"
     inkscape:window-width="1920"
     inkscape:window-height="991"
     inkscape:window-x="-9"
     inkscape:window-y="-9"
     inkscape:window-maximized="1"
     inkscape:current-layer="g1" />
  <g
     inkscape:groupmode="layer"
     inkscape:label="Image"
     id="g1">
    <path
       style="fill:#2a4960;fill-opacity:1;stroke-width:3.29957"
       d="m 919.71976,697.31362 c 6.42251,-0.97054 8.7688,-11.05447 3.78299,-16.25858 l -2.8372,-2.96139 h -28.42367 c -26.62924,0 -28.38009,-0.11681 -27.73328,-1.84776 0.37972,-1.01626 5.65707,-10.68218 11.72745,-21.47984 12.10043,-21.52359 13.12181,-25.02707 8.54878,-29.3232 -1.36853,-1.28568 -4.1007,-2.59923 -6.07153,-2.91906 -4.97037,-0.80658 -8.59517,2.30739 -13.10099,11.25478 -1.99502,3.96156 -4.00343,7.43528 -4.46313,7.7194 -2.29705,1.41967 -46.97957,-25.40091 -68.8839,-41.34744 C 710.90276,540.91802 643.1935,447.22921 608.60812,346.02545 c -5.65473,-16.54683 -7.58698,-19.53343 -12.63766,-19.53343 -1.5503,0 -6.80272,1.68024 -11.67205,3.73385 -22.24365,9.3812 -65.92251,20.57962 -98.78037,25.32545 -29.08655,4.20111 -41.28508,4.97439 -84.19708,5.33745 -27.42688,0.23196 -43.7722,0.76734 -45.09799,1.47691 -1.33752,0.71581 -2.88897,3.83875 -4.34804,8.75217 -1.2477,4.2016 -4.41624,13.5785 -7.04124,20.83754 -33.75468,93.34384 -96.92255,174.47771 -176.15428,226.25567 -18.18374,11.88309 -38.30587,23.21198 -40.04395,22.54504 -0.77187,-0.2963 -3.14518,-3.65315 -5.27402,-7.45989 -6.0099,-10.74668 -10.47391,-13.17414 -17.52317,-9.52881 -3.09694,1.60147 -5.18151,5.13584 -5.18151,8.78512 0,1.00931 4.08414,8.93694 9.07585,17.61694 10.20144,17.73902 14.15309,25.23108 14.15309,26.83325 0,0.67305 -3.7879,1.09094 -9.8883,1.09094 -11.39439,0 -14.884347,1.70564 -16.034477,7.83647 -0.82687,4.40749 1.80233,9.88091 5.088737,10.59368 2.62483,0.56927 812.94154,1.35299 816.6681,0.78982 z M 331.99815,679.41347 c -4.08413,-3.83399 -23.42585,-39.54624 -24.08148,-44.46365 -0.98406,-7.38096 6.54126,-12.67584 13.15484,-9.25581 1.85076,0.95708 4.36147,4.01086 6.34863,7.72194 5.85933,10.94248 4.58214,10.50588 16.52194,5.64774 14.16461,-5.76339 16.95967,-6.45484 20.75051,-5.13337 3.50499,1.22186 5.20869,3.68301 5.20869,7.52433 0,4.742 -3.69307,7.657 -16.33123,12.89044 -6.69736,2.77335 -12.17701,5.15934 -12.17701,5.30217 0,0.14288 1.439,3.33474 3.1978,7.09318 2.57,5.49196 2.99763,7.35984 2.17834,9.51472 -2.40416,6.32349 -9.73064,7.89002 -14.77103,3.15831 z m 410.12566,-2.32454 c -0.34151,-0.55261 5.03932,-8.12996 11.95745,-16.83857 6.91814,-8.70864 16.47226,-21.32278 21.23142,-28.03146 4.75916,-6.70867 8.80759,-12.1976 8.99656,-12.1976 0.18907,0 7.6348,4.69251 16.54633,10.42782 8.91153,5.73527 23.56741,14.5652 32.56862,19.62201 9.00122,5.05682 16.50815,9.33629 16.68214,9.50991 0.46785,0.46696 -9.50598,16.79858 -10.81228,17.70454 -1.70389,1.18174 -96.43682,0.99001 -97.17024,-0.19665 z m -47.7788,-1.37097 C 690.71008,671.7665 674.6542,647.63167 668.22902,636.46102 636.41861,581.15619 615.9905,518.30277 609.1803,454.77911 c -1.98357,-18.50195 -4.23097,-54.25514 -3.58547,-57.03978 0.33094,-1.42759 2.82509,2.75606 7.88223,13.22156 35.84882,74.18706 82.65817,135.69098 140.04559,184.00926 6.86748,5.78215 12.73856,11.17038 13.04687,11.97382 0.99037,2.58082 -27.62785,41.52655 -45.49351,61.9109 l -8.09723,9.23878 h -8.2242 c -7.17735,0 -8.50235,-0.30224 -10.40957,-2.37569 z m -225.87533,-1.05969 c -3.60893,-4.11488 -28.8929,-37.62207 -38.35355,-50.82742 l -6.72629,-9.38875 4.74302,-4.33744 c 2.60867,-2.38562 11.42521,-10.43366 19.59226,-17.88454 37.67589,-34.372 69.86328,-74.7171 97.43646,-122.13103 9.74044,-16.74935 23.95441,-44.46926 28.4243,-55.43269 5.23202,-12.83283 10.99134,-24.81273 11.92865,-24.81273 1.05916,0 1.05395,0.74894 -0.21315,30.63481 -1.98532,46.82888 -4.79493,73.83276 -10.63463,102.21199 -9.95997,48.4026 -24.70523,87.99682 -45.88059,123.19942 -7.30305,12.14088 -20.78142,30.62475 -22.98259,31.51775 -0.70406,0.28574 -8.71428,0.55683 -17.80053,0.60266 l -16.52042,0.0835 z m -322.14033,-0.59161 c -3.16831,-4.3841 -8.29,-14.75067 -7.5767,-15.33568 0.24351,-0.19996 4.24413,-2.40935 8.88992,-4.91002 12.4911,-6.72362 25.04694,-14.27976 37.17162,-22.37 l 10.77512,-7.18975 2.54403,3.42333 c 1.39922,1.88283 6.82964,9.36974 12.06763,16.63763 5.23803,7.26785 12.87702,17.47232 16.97554,22.67659 5.10575,6.48319 7.05569,9.71422 6.19342,10.26244 -0.69219,0.44006 -19.90466,0.8074 -42.69443,0.81628 l -41.4359,0.0165 z"
       id="path1"
       sodipodi:nodetypes="sscsssssssssssssssssssssssssssssssssssssssssssssssscssssssscscsscsssssssssscssssscssssccs" />
  </g>
</svg>
