<?xml version="1.0" encoding="UTF-8"?>
<svg width="1024" height="1024" version="1.1" viewBox="0 0 61.652 61.652" xmlns="http://www.w3.org/2000/svg" xmlns:xlink="http://www.w3.org/1999/xlink">
 <defs>
  <linearGradient id="linearGradient6" x2="61.652" y1="30.826" y2="30.826" gradientUnits="userSpaceOnUse">
   <stop stop-color="#ff3331" offset="0"/>
   <stop stop-color="#ff904d" offset="1"/>
  </linearGradient>
 </defs>
 <g>
  <path d="m26.75 0h20.503a14.399 14.399 45 0 1 14.399 14.399v20.503a26.75 26.75 135 0 1-26.75 26.75h-20.503a14.399 14.399 45 0 1-14.399-14.399v-20.503a26.75 26.75 135 0 1 26.75-26.75z" fill="url(#linearGradient6)" style="paint-order:markers stroke fill"/>
  <path d="m17.069 53.744c-0.26782-0.1624-0.67621-0.43684-0.90755-0.60985-0.23133-0.17302-0.57957-0.41494-0.77384-0.5376-1.5225-0.96124-3.8112-3.2432-5.1854-5.1701-0.69707-0.97743-1.4877-2.3077-2.1312-3.5856-0.54165-1.0757-1.4333-3.5049-1.5763-4.2946-0.02306-0.1273-0.0666-0.27912-0.096768-0.33739-0.073167-0.14134-0.21513-0.76777-0.39891-1.7603-0.056415-0.30468-0.1677-1.0693-0.29728-2.0426-0.10093-0.75808-0.1416-3.5541-0.063697-4.3791 0.1554-1.6459 0.21861-2.0809 0.48251-3.3211 0.76552-3.5975 2.2597-6.9133 4.4073-9.7805 0.95119-1.2699 1.6888-2.1189 2.6659-3.0683 2.5492-2.4772 5.0909-4.151 8.2284-5.4189 1.3332-0.53874 2.9466-1.0174 4.3861-1.3012 2.09-0.41209 2.7307-0.48397 4.6145-0.51771 1.6039-0.028732 3.0337 0.066377 4.1282 0.27461 0.30762 0.058522 0.89046 0.16532 1.2952 0.23732 0.40476 0.072006 0.90042 0.18101 1.1015 0.24224 0.20106 0.06123 0.40421 0.11132 0.45146 0.11132 0.15333 0 1.9861 0.62435 2.8626 0.97516 0.46952 0.18793 1.2908 0.55904 1.8251 0.82469 0.82079 0.40811 1.2359 0.64158 2.2646 1.2738 0.91679 0.56338 1.5529 1.0197 2.3864 1.7119 0.27524 0.22859 0.55174 0.45549 0.61444 0.50423 0.0627 0.04874 0.38063 0.33976 0.70648 0.6467 1.5366 1.4474 2.8726 3.0173 3.777 4.4382 0.18519 0.29096 0.45357 0.70937 0.5964 0.92978 0.53045 0.81862 1.1549 1.9972 1.5162 2.8616 0.08782 0.21014 0.19396 0.46266 0.23586 0.56116 0.20634 0.48512 0.39582 1.0162 0.64918 1.8194 0.15296 0.48494 0.31733 0.98751 0.36528 1.1168 0.04794 0.12932 0.10922 0.35415 0.13615 0.49963 0.02692 0.14548 0.08861 0.42321 0.13708 0.61719 0.16666 0.66704 0.28388 1.2941 0.3351 1.7928 0.02825 0.2748 0.0916 0.77737 0.14084 1.1168 0.1255 0.86539 0.12801 4.3209 0.0038 5.1139-0.04814 0.30713-0.11531 0.84938-0.14928 1.205-0.03395 0.35562-0.09746 0.77884-0.14112 0.94048-0.04364 0.16165-0.09434 0.4333-0.11261 0.60369-0.0183 0.17038-0.0739 0.44812-0.12362 0.61719-0.08141 0.27685-0.13584 0.48087-0.3322 1.2454-0.03287 0.12796-0.0953 0.31311-0.13877 0.41146-0.04345 0.09835-0.15131 0.41687-0.23967 0.70783-0.08836 0.29096-0.19602 0.60838-0.23924 0.70537-0.04319 0.09699-0.16925 0.40118-0.28005 0.67597-0.97116 2.4085-2.4327 4.7767-4.1899 6.7891-1.1451 1.3114-2.6448 2.6817-3.7971 3.4694-1.4145 0.96703-1.979 1.3046-2.0549 1.2288-0.03312-0.03303 0.13828-0.19913 0.99519-0.96442 0.37237-0.33256 0.77366-0.71357 0.89175-0.8467 0.11809-0.13313 0.43383-0.49333 0.70164-0.80045 0.26781-0.30713 0.68929-0.78325 0.9366-1.058 1.7435-1.9372 2.9397-3.5258 3.8288-5.0845 0.0553-0.09699 0.17121-0.29537 0.25753-0.44085 0.33452-0.56382 1.1004-2.1824 1.3907-2.939 0.49524-1.2908 0.5958-1.5996 0.87591-2.6892 0.3609-1.4039 0.52905-2.2442 0.6675-3.3358 0.10229-0.80645 0.09939-4.8932-0.0038-5.7311-0.0698-0.56533-0.32974-2.0183-0.48897-2.7333-0.08663-0.3889-0.4306-1.6112-0.61206-2.1749-0.2503-0.77749-1.0164-2.5748-1.3793-3.2359-0.92432-1.6838-1.0944-1.9507-2.1044-3.3018-0.77635-1.0385-1.4498-1.7967-2.553-2.8742-1.28-1.2501-1.8542-1.7195-3.5272-2.8832-0.573-0.39856-2.2949-1.3608-3.0025-1.6778-0.11333-0.05076-0.35918-0.1613-0.54633-0.24561-0.18715-0.08431-0.36446-0.15329-0.39403-0.15329-0.02958 0-0.14138-0.05089-0.24846-0.11302-0.3055-0.17733-2.188-0.8069-2.8146-0.9413-0.11333-0.024308-0.35177-0.087466-0.52986-0.14033-0.8826-0.26203-2.1642-0.4726-3.495-0.57424-1.1897-0.09087-4.2404-0.038674-5.1889 0.088746-0.89855 0.12072-2.1681 0.35844-2.7376 0.51263-1.4579 0.39466-2.6335 0.77064-3.0025 0.96032-0.08095 0.04159-0.2929 0.1356-0.47098 0.20889-0.1781 0.07329-0.43611 0.18223-0.57338 0.24211-0.13726 0.05987-0.25893 0.10887-0.27036 0.10887-0.07337 0-2.1137 1.1-2.5208 1.359-0.99805 0.63505-1.1544 0.739-1.5693 1.0433-1.4602 1.071-2.6597 2.1879-4.0487 3.77-0.6826 0.77751-1.0146 1.2195-1.8344 2.4424-0.79779 1.1901-0.85855 1.2909-1.2517 2.0753-1.1012 2.1976-1.4505 3.102-1.9779 5.1218-0.2136 0.81802-0.49553 2.4405-0.64349 3.7032-0.15893 1.3563-0.06878 4.8722 0.14748 5.7517 0.034589 0.14067 0.085634 0.40518 0.11343 0.5878 0.23408 1.538 0.72395 3.336 1.3315 4.8875 0.36955 0.94362 0.97409 2.2196 1.3326 2.8128 0.12414 0.20536 0.2257 0.38052 0.2257 0.38926 0 0.0087 0.14905 0.2639 0.33124 0.56706 1.2597 2.0962 4.5481 5.9389 6.8513 8.0062 0.27524 0.24704 0.45844 0.44959 0.40711 0.45009-0.0513 4.42e-4 -0.31242-0.13196-0.58024-0.29436zm13.549-2.3939c-0.13145-0.12123-0.48275-0.49816-0.78065-0.83762-0.2979-0.33946-0.83621-0.92146-1.1962-1.2933-2.3752-2.4533-3.5172-3.6452-3.6892-3.8499-0.10858-0.12932-0.45566-0.49963-0.7713-0.82293-0.31564-0.32329-0.7144-0.74468-0.88614-0.93642-0.17174-0.19173-0.51224-0.54883-0.75667-0.79353-0.24443-0.24471-1.026-1.0532-1.7368-1.7966-1.5803-1.6529-2.5436-2.6492-3.4707-3.5896-1.2414-1.2593-3.1845-3.2785-3.4362-3.5708-0.26935-0.31282-0.26825-0.32684 0.05383-0.68699 0.2355-0.26335 2.1595-2.326 2.8524-3.058 0.29148-0.30791 1.0656-1.1411 1.7204-1.8516 0.65471-0.71046 1.5008-1.6224 1.8802-2.0265 1.781-1.897 2.443-2.5989 2.9385-3.1154 0.29469-0.30712 0.88906-0.94195 1.3208-1.4107 0.43177-0.46877 0.94341-1.0242 1.137-1.2344 0.19357-0.21014 0.55339-0.59426 0.79959-0.85362 0.2462-0.25935 0.68608-0.73423 0.9775-1.0553 0.29143-0.32106 0.82128-0.88993 1.1775-1.2642 0.35619-0.37424 0.9483-1.0037 1.3158-1.3988 0.36752-0.39509 0.71355-0.71835 0.76897-0.71835 0.05543 0 0.4568 0.37664 0.89194 0.837 0.43515 0.46035 1.3212 1.3795 1.9689 2.0426 0.64775 0.66309 1.7075 1.7593 2.3549 2.4361 0.64747 0.67675 1.6938 1.7602 2.3253 2.4077 0.63141 0.64746 1.2408 1.274 1.3541 1.3923 0.11333 0.1183 0.47761 0.49339 0.80951 0.83352 0.35992 0.36885 0.60346 0.66612 0.60346 0.73661 0 0.17841-0.57984 0.83514-0.73736 0.83514-0.12906 0-0.74248-0.60242-3.6211-3.5562-1.4864-1.5253-3.9552-4.0899-4.3849-4.5553-0.19394-0.21002-0.6066-0.64309-0.91703-0.96238-0.49023-0.50422-0.57948-0.57247-0.67903-0.51928-0.1002 0.05354-1.6778 1.6733-2.7006 2.7728-0.19456 0.20916-0.60544 0.64634-0.91306 0.97152-0.30761 0.32518-0.71678 0.76243-0.90925 0.97166-0.19247 0.20923-0.61708 0.65816-0.94355 0.99761-1.2854 1.3365-3.5632 3.7697-4.205 4.4919-0.37172 0.41828-0.98405 1.074-1.7336 1.8564-2.9921 3.1231-3.9244 4.1619-3.9244 4.3728 0 0.13393 1.3669 1.5841 3.3472 3.5511 0.73321 0.72827 0.99537 0.95409 1.0919 0.94048 0.13222-0.0186 2.0081-1.9637 4.2578-4.4148 0.20403-0.2223 0.35319-0.33494 0.44352-0.33494 0.09946 0 0.39711 0.27277 1.1055 1.0131 0.5332 0.55721 1.6715 1.7279 2.5296 2.6014 0.85808 0.87357 1.6155 1.6543 1.6831 1.7349 0.24765 0.2951 0.80384 0.76374 0.90642 0.76374 0.10327 0 0.79293-0.70516 2.3283-2.3806 0.41476-0.45261 1.0117-1.1007 1.3265-1.4401 0.91426-0.98578 1.5263-1.7252 1.5266-1.8444 1.58e-4 -0.0607-0.15247-0.25908-0.33916-0.44085-0.1867-0.18177-0.76277-0.78016-1.2802-1.3298-0.51739-0.54959-1.1131-1.1735-1.3237-1.3865-0.21066-0.21298-0.77443-0.78829-1.2528-1.2785s-0.91513-0.89124-0.97053-0.89124c-0.12155 0-0.80871 0.69625-2.4656 2.4982-0.68371 0.74357-1.3782 1.4654-1.5433 1.604-0.28925 0.24291-0.30617 0.24899-0.46476 0.16711-0.20221-0.10441-0.43529-0.33242-0.54056-0.52881-0.07197-0.13427-0.0629-0.16903 0.10284-0.39404 0.20352-0.2763 1.4074-1.6097 2.2241-2.4633 0.29457-0.3079 0.67561-0.71852 0.84676-0.91249 0.17116-0.19398 0.35713-0.39236 0.4133-0.44085 0.05612-0.04848 0.24074-0.24687 0.41019-0.44085 0.7144-0.8178 0.92144-0.99735 1.08-0.9366 0.04719 0.01804 1.1283 1.1223 2.4025 2.4539 3.0583 3.196 3.5369 3.6848 3.6075 3.6848 0.06969 0 1.0308-0.96964 2.1551-2.1742 0.43714-0.46834 1.126-1.2015 1.5307-1.6291 0.40476-0.42768 0.95832-1.0166 1.2301-1.3086 0.27182-0.29205 0.53675-0.5307 0.58874-0.53031 0.10957 6.34e-4 0.19978 0.08666 1.8922 1.801 3.6209 3.6678 3.8836 3.9447 3.8836 4.0927 0 0.10568-0.19807 0.35492-0.7212 0.90755-0.39666 0.41902-1.1583 1.2332-1.6926 1.8094-1.2626 1.3615-3.1753 3.4096-4.2445 4.5449-0.46645 0.49528-1.0441 1.1169-1.2837 1.3813-0.23958 0.26445-0.70321 0.75919-1.0303 1.0994-0.56816 0.59104-1.1002 1.1667-3.3939 3.6723-0.56229 0.61425-1.2243 1.3284-1.471 1.5871-0.24677 0.25863-0.64534 0.67846-0.88571 0.93294-0.24037 0.25449-0.61787 0.65125-0.83888 0.8817-0.22101 0.23046-0.55071 0.59094-0.73267 0.80108-0.51606 0.596-0.91562 0.99926-0.99007 0.99926-0.03743 0-0.17559-0.09919-0.30705-0.22042zm0.83358-2.1243c0.18963-0.1814 0.77037-0.80594 1.2905-1.3879 0.52017-0.58192 0.98761-1.1007 1.0388-1.1529 0.59514-0.60719 1.9619-2.0764 2.5364-2.7266 0.14284-0.16165 0.59201-0.63862 0.99816-1.06 0.40615-0.42134 1.2551-1.3197 1.8865-1.9964 0.63142-0.67668 1.5461-1.6545 2.0326-2.173 0.48654-0.51845 1.1201-1.2072 1.4079-1.5304 0.28779-0.32329 0.77723-0.85438 1.0877-1.1802 0.58653-0.61562 1.1742-1.2592 1.861-2.038 0.22095-0.25055 0.41913-0.45555 0.4404-0.45555 0.02128 0 0.12579-0.12109 0.23224-0.26909 0.14906-0.20724 0.18152-0.296 0.14123-0.38616-0.02876-0.0644-0.58183-0.65087-1.229-1.3033-0.64717-0.65242-1.312-1.3317-1.4773-1.5095-0.5905-0.63501-1.1301-1.1168-1.2507-1.1168-0.14333 0-0.35234 0.20254-1.4504 1.4055-0.45333 0.49663-0.92044 0.99855-1.038 1.1154-0.11759 0.11683-0.58123 0.618-1.0303 1.1137-0.44906 0.49571-1.0947 1.202-1.4346 1.5694-0.34 0.36748-0.97508 1.0596-1.4113 1.5381-0.43622 0.47847-1.0081 1.0948-1.2708 1.3696-0.60465 0.6324-1.1649 1.2423-1.757 1.9127-1.326 1.5014-2.1248 2.3193-2.2659 2.3199-0.09744 4.49e-4 -0.3529-0.25608-3.937-3.9534-1.4671-1.5134-2.1317-2.1602-2.2197-2.1602-0.12986 0-0.73801 0.59809-2.456 2.4153-1.1115 1.1758-1.2846 1.3858-1.2846 1.5589 0 0.10644 0.32479 0.47216 1.2871 1.4492 0.70788 0.71878 1.4282 1.4656 1.6007 1.6596 0.17252 0.19398 0.51398 0.55251 0.75879 0.79676 0.24482 0.24425 0.88086 0.90552 1.4134 1.4695 1.8233 1.9309 3.0944 3.2584 4.0092 4.1871 0.74131 0.75254 0.9371 0.92143 1.0303 0.88877 0.06328-0.02215 0.2702-0.18874 0.45983-0.37014z" fill="#274c65" stroke="#274c65" stroke-linecap="round" stroke-linejoin="round" stroke-width="1.2"/>
 </g>
</svg>
